<?xml version="1.0" encoding="UTF-8"?>
<svg xmlns="http://www.w3.org/2000/svg"
     width="1254" height="1254" viewBox="0 0 1254 1254"
     version="1.1">
  <title>Compass rose black and white traced from generated image</title>
  <rect width="100%" height="100%" fill="white"/>
  <path d="M 656.00 1082.00 L 644.00 1081.00 L 643.00 1082.00 L 638.00 1082.00 L 637.00 1083.00 L 630.00 1085.00 L 622.00 1092.00 L 619.00 1097.00 L 619.00 1099.00 L 617.00 1103.00 L 617.00 1115.00 L 621.00 1124.00 L 629.00 1132.00 L 651.00 1145.00 L 659.00 1153.00 L 660.00 1155.00 L 660.00 1158.00 L 661.00 1159.00 L 661.00 1164.00 L 660.00 1165.00 L 660.00 1168.00 L 655.00 1175.00 L 649.00 1178.00 L 638.00 1178.00 L 637.00 1177.00 L 633.00 1176.00 L 626.00 1170.00 L 621.00 1162.00 L 619.00 1154.00 L 616.00 1154.00 L 615.00 1155.00 L 615.00 1158.00 L 616.00 1159.00 L 616.00 1170.00 L 617.00 1171.00 L 617.00 1177.00 L 625.00 1181.00 L 633.00 1182.00 L 634.00 1183.00 L 651.00 1183.00 L 652.00 1182.00 L 658.00 1181.00 L 665.00 1177.00 L 671.00 1171.00 L 675.00 1163.00 L 675.00 1158.00 L 676.00 1157.00 L 676.00 1154.00 L 675.00 1153.00 L 675.00 1147.00 L 671.00 1139.00 L 663.00 1131.00 L 638.00 1116.00 L 635.00 1113.00 L 631.00 1106.00 L 631.00 1097.00 L 633.00 1093.00 L 638.00 1088.00 L 642.00 1086.00 L 650.00 1086.00 L 656.00 1089.00 L 661.00 1094.00 L 665.00 1101.00 L 666.00 1107.00 L 669.00 1107.00 L 670.00 1106.00 L 670.00 1103.00 L 669.00 1102.00 L 669.00 1089.00 L 668.00 1088.00 L 668.00 1086.00 L 661.00 1084.00 L 660.00 1083.00 L 657.00 1083.00 Z M 910.00 879.00 L 904.00 882.00 L 898.00 887.00 L 894.00 895.00 L 894.00 902.00 L 897.00 908.00 L 902.00 912.00 L 904.00 912.00 L 905.00 913.00 L 915.00 913.00 L 916.00 912.00 L 919.00 912.00 L 920.00 911.00 L 922.00 911.00 L 923.00 910.00 L 927.00 910.00 L 928.00 909.00 L 931.00 909.00 L 932.00 910.00 L 936.00 911.00 L 940.00 916.00 L 940.00 923.00 L 934.00 929.00 L 932.00 929.00 L 931.00 930.00 L 922.00 930.00 L 919.00 928.00 L 917.00 928.00 L 917.00 929.00 L 925.00 936.00 L 928.00 936.00 L 936.00 931.00 L 941.00 926.00 L 944.00 921.00 L 945.00 913.00 L 942.00 906.00 L 938.00 902.00 L 934.00 900.00 L 923.00 900.00 L 922.00 901.00 L 919.00 901.00 L 918.00 902.00 L 912.00 903.00 L 911.00 904.00 L 906.00 904.00 L 902.00 902.00 L 898.00 897.00 L 898.00 892.00 L 903.00 886.00 L 905.00 885.00 L 912.00 885.00 L 913.00 886.00 L 918.00 887.00 L 918.00 886.00 L 911.00 879.00 Z M 374.00 876.00 L 375.00 880.00 L 376.00 881.00 L 375.00 882.00 L 375.00 884.00 L 364.00 906.00 L 364.00 908.00 L 361.00 913.00 L 361.00 915.00 L 354.00 929.00 L 354.00 932.00 L 356.00 932.00 L 360.00 930.00 L 362.00 928.00 L 380.00 919.00 L 382.00 917.00 L 389.00 914.00 L 391.00 912.00 L 392.00 914.00 L 390.00 917.00 L 388.00 924.00 L 385.00 929.00 L 383.00 936.00 L 380.00 941.00 L 380.00 943.00 L 376.00 951.00 L 376.00 952.00 L 379.00 952.00 L 385.00 949.00 L 387.00 947.00 L 394.00 944.00 L 396.00 942.00 L 403.00 939.00 L 405.00 937.00 L 410.00 935.00 L 412.00 933.00 L 424.00 927.00 L 427.00 927.00 L 429.00 928.00 L 429.00 926.00 L 428.00 926.00 L 420.00 918.00 L 419.00 918.00 L 419.00 920.00 L 421.00 922.00 L 421.00 924.00 L 418.00 927.00 L 415.00 928.00 L 413.00 930.00 L 410.00 931.00 L 408.00 933.00 L 403.00 935.00 L 401.00 937.00 L 396.00 939.00 L 394.00 941.00 L 390.00 943.00 L 389.00 941.00 L 393.00 934.00 L 393.00 932.00 L 396.00 927.00 L 396.00 925.00 L 402.00 913.00 L 404.00 906.00 L 400.00 902.00 L 398.00 902.00 L 398.00 903.00 L 394.00 908.00 L 380.00 915.00 L 378.00 917.00 L 371.00 920.00 L 369.00 922.00 L 368.00 921.00 L 369.00 917.00 L 371.00 914.00 L 371.00 912.00 L 375.00 905.00 L 375.00 903.00 L 381.00 891.00 L 384.00 888.00 L 388.00 890.00 L 388.00 889.00 L 375.00 876.00 Z M 354.00 854.00 L 352.00 854.00 L 351.00 853.00 L 342.00 853.00 L 338.00 855.00 L 333.00 862.00 L 333.00 865.00 L 332.00 866.00 L 332.00 868.00 L 333.00 869.00 L 333.00 874.00 L 334.00 875.00 L 335.00 881.00 L 337.00 885.00 L 337.00 893.00 L 333.00 898.00 L 329.00 900.00 L 326.00 900.00 L 325.00 899.00 L 323.00 899.00 L 318.00 894.00 L 316.00 890.00 L 316.00 883.00 L 317.00 882.00 L 317.00 879.00 L 319.00 875.00 L 317.00 875.00 L 310.00 884.00 L 310.00 887.00 L 311.00 889.00 L 313.00 891.00 L 315.00 895.00 L 320.00 900.00 L 328.00 904.00 L 336.00 904.00 L 337.00 903.00 L 339.00 903.00 L 345.00 898.00 L 346.00 894.00 L 347.00 893.00 L 347.00 886.00 L 346.00 885.00 L 345.00 878.00 L 344.00 877.00 L 343.00 871.00 L 342.00 870.00 L 342.00 864.00 L 344.00 860.00 L 346.00 858.00 L 348.00 857.00 L 354.00 857.00 L 360.00 862.00 L 361.00 864.00 L 361.00 872.00 L 360.00 873.00 L 359.00 877.00 L 360.00 877.00 L 367.00 870.00 L 363.00 862.00 Z M 942.00 846.00 L 918.00 870.00 L 918.00 871.00 L 920.00 870.00 L 924.00 870.00 L 926.00 871.00 L 958.00 903.00 L 958.00 906.00 L 957.00 907.00 L 957.00 909.00 L 958.00 909.00 L 984.00 883.00 L 983.00 880.00 L 977.00 874.00 L 977.00 873.00 L 975.00 872.00 L 977.00 876.00 L 977.00 879.00 L 978.00 880.00 L 977.00 885.00 L 968.00 895.00 L 966.00 896.00 L 963.00 895.00 L 948.00 881.00 L 948.00 880.00 L 955.00 873.00 L 957.00 872.00 L 961.00 872.00 L 965.00 874.00 L 965.00 873.00 L 955.00 863.00 L 952.00 862.00 L 955.00 868.00 L 954.00 870.00 L 946.00 878.00 L 945.00 878.00 L 930.00 863.00 L 933.00 858.00 L 937.00 854.00 L 942.00 851.00 L 944.00 851.00 L 950.00 854.00 L 952.00 854.00 L 952.00 853.00 L 951.00 853.00 L 944.00 846.00 Z M 1126.00 553.00 L 1126.00 557.00 L 1129.00 557.00 L 1130.00 558.00 L 1133.00 558.00 L 1135.00 559.00 L 1138.00 564.00 L 1138.00 643.00 L 1137.00 644.00 L 1137.00 646.00 L 1133.00 650.00 L 1129.00 650.00 L 1128.00 651.00 L 1126.00 651.00 L 1126.00 655.00 L 1200.00 655.00 L 1201.00 653.00 L 1201.00 648.00 L 1202.00 647.00 L 1202.00 642.00 L 1203.00 641.00 L 1203.00 636.00 L 1204.00 635.00 L 1204.00 630.00 L 1201.00 630.00 L 1196.00 640.00 L 1189.00 647.00 L 1185.00 648.00 L 1184.00 649.00 L 1161.00 649.00 L 1156.00 643.00 L 1156.00 607.00 L 1158.00 605.00 L 1171.00 605.00 L 1172.00 606.00 L 1177.00 606.00 L 1182.00 610.00 L 1183.00 614.00 L 1184.00 615.00 L 1184.00 619.00 L 1188.00 619.00 L 1188.00 586.00 L 1184.00 586.00 L 1184.00 590.00 L 1183.00 591.00 L 1182.00 595.00 L 1177.00 599.00 L 1173.00 599.00 L 1172.00 600.00 L 1157.00 600.00 L 1156.00 599.00 L 1156.00 561.00 L 1158.00 559.00 L 1161.00 559.00 L 1162.00 558.00 L 1177.00 558.00 L 1178.00 559.00 L 1182.00 559.00 L 1183.00 560.00 L 1185.00 560.00 L 1192.00 567.00 L 1195.00 576.00 L 1198.00 576.00 L 1198.00 553.00 Z M 41.00 553.00 L 41.00 557.00 L 48.00 559.00 L 53.00 565.00 L 53.00 567.00 L 55.00 571.00 L 55.00 574.00 L 56.00 575.00 L 56.00 577.00 L 57.00 578.00 L 57.00 580.00 L 58.00 581.00 L 58.00 583.00 L 59.00 584.00 L 59.00 586.00 L 60.00 587.00 L 60.00 589.00 L 61.00 590.00 L 61.00 592.00 L 62.00 593.00 L 62.00 595.00 L 65.00 602.00 L 65.00 605.00 L 66.00 606.00 L 66.00 608.00 L 67.00 609.00 L 67.00 611.00 L 68.00 612.00 L 68.00 614.00 L 69.00 615.00 L 69.00 617.00 L 70.00 618.00 L 70.00 620.00 L 71.00 621.00 L 71.00 623.00 L 72.00 624.00 L 72.00 626.00 L 73.00 627.00 L 73.00 629.00 L 74.00 630.00 L 74.00 632.00 L 75.00 633.00 L 75.00 635.00 L 76.00 636.00 L 76.00 638.00 L 77.00 639.00 L 77.00 641.00 L 78.00 642.00 L 82.00 656.00 L 87.00 656.00 L 88.00 655.00 L 90.00 647.00 L 93.00 641.00 L 93.00 638.00 L 95.00 635.00 L 95.00 633.00 L 96.00 632.00 L 96.00 630.00 L 97.00 629.00 L 101.00 615.00 L 103.00 612.00 L 103.00 610.00 L 104.00 609.00 L 104.00 607.00 L 105.00 606.00 L 105.00 604.00 L 106.00 603.00 L 106.00 601.00 L 107.00 600.00 L 107.00 598.00 L 108.00 597.00 L 108.00 595.00 L 109.00 594.00 L 109.00 592.00 L 112.00 585.00 L 115.00 590.00 L 115.00 592.00 L 116.00 593.00 L 116.00 595.00 L 117.00 596.00 L 117.00 598.00 L 118.00 599.00 L 118.00 601.00 L 119.00 602.00 L 119.00 604.00 L 120.00 605.00 L 120.00 607.00 L 123.00 614.00 L 123.00 617.00 L 125.00 620.00 L 125.00 622.00 L 126.00 623.00 L 126.00 625.00 L 127.00 626.00 L 131.00 640.00 L 134.00 646.00 L 134.00 649.00 L 135.00 650.00 L 136.00 655.00 L 137.00 656.00 L 142.00 656.00 L 144.00 649.00 L 145.00 648.00 L 145.00 646.00 L 146.00 645.00 L 146.00 643.00 L 147.00 642.00 L 147.00 640.00 L 148.00 639.00 L 148.00 637.00 L 150.00 634.00 L 154.00 620.00 L 156.00 617.00 L 156.00 615.00 L 157.00 614.00 L 157.00 612.00 L 158.00 611.00 L 158.00 609.00 L 159.00 608.00 L 159.00 606.00 L 160.00 605.00 L 160.00 603.00 L 161.00 602.00 L 161.00 600.00 L 162.00 599.00 L 162.00 597.00 L 163.00 596.00 L 163.00 594.00 L 164.00 593.00 L 164.00 591.00 L 165.00 590.00 L 165.00 588.00 L 166.00 587.00 L 166.00 585.00 L 167.00 584.00 L 167.00 582.00 L 168.00 581.00 L 172.00 567.00 L 174.00 563.00 L 178.00 559.00 L 182.00 557.00 L 185.00 557.00 L 185.00 553.00 L 154.00 553.00 L 154.00 557.00 L 160.00 558.00 L 165.00 562.00 L 165.00 567.00 L 164.00 568.00 L 164.00 571.00 L 162.00 575.00 L 162.00 578.00 L 161.00 579.00 L 161.00 581.00 L 158.00 588.00 L 158.00 591.00 L 155.00 598.00 L 155.00 601.00 L 154.00 602.00 L 154.00 604.00 L 153.00 605.00 L 153.00 607.00 L 152.00 608.00 L 152.00 610.00 L 151.00 611.00 L 151.00 613.00 L 150.00 614.00 L 150.00 616.00 L 149.00 617.00 L 149.00 619.00 L 146.00 626.00 L 144.00 623.00 L 144.00 621.00 L 143.00 620.00 L 143.00 618.00 L 142.00 617.00 L 142.00 615.00 L 141.00 614.00 L 141.00 612.00 L 140.00 611.00 L 140.00 609.00 L 139.00 608.00 L 139.00 606.00 L 138.00 605.00 L 138.00 603.00 L 137.00 602.00 L 137.00 600.00 L 136.00 599.00 L 136.00 597.00 L 135.00 596.00 L 135.00 594.00 L 134.00 593.00 L 134.00 591.00 L 133.00 590.00 L 133.00 588.00 L 130.00 581.00 L 130.00 578.00 L 129.00 577.00 L 129.00 575.00 L 126.00 568.00 L 126.00 561.00 L 129.00 558.00 L 134.00 557.00 L 134.00 553.00 L 99.00 553.00 L 99.00 557.00 L 104.00 559.00 L 107.00 563.00 L 107.00 565.00 L 109.00 569.00 L 109.00 575.00 L 108.00 576.00 L 108.00 578.00 L 107.00 579.00 L 107.00 581.00 L 106.00 582.00 L 106.00 584.00 L 105.00 585.00 L 105.00 587.00 L 104.00 588.00 L 104.00 590.00 L 103.00 591.00 L 103.00 593.00 L 102.00 594.00 L 102.00 596.00 L 101.00 597.00 L 101.00 599.00 L 100.00 600.00 L 100.00 602.00 L 99.00 603.00 L 99.00 605.00 L 98.00 606.00 L 98.00 608.00 L 97.00 609.00 L 97.00 611.00 L 96.00 612.00 L 96.00 614.00 L 93.00 621.00 L 93.00 624.00 L 92.00 625.00 L 90.00 624.00 L 90.00 621.00 L 89.00 620.00 L 89.00 618.00 L 88.00 617.00 L 88.00 615.00 L 85.00 608.00 L 85.00 605.00 L 84.00 604.00 L 84.00 602.00 L 83.00 601.00 L 83.00 599.00 L 80.00 592.00 L 80.00 589.00 L 77.00 582.00 L 77.00 579.00 L 76.00 578.00 L 76.00 576.00 L 73.00 569.00 L 73.00 565.00 L 72.00 564.00 L 72.00 562.00 L 74.00 559.00 L 82.00 557.00 L 82.00 553.00 Z M 957.00 306.00 L 956.00 306.00 L 958.00 311.00 L 957.00 313.00 L 951.00 319.00 L 951.00 320.00 L 926.00 346.00 L 921.00 345.00 L 921.00 346.00 L 949.00 373.00 L 951.00 373.00 L 953.00 371.00 L 957.00 369.00 L 959.00 367.00 L 959.00 366.00 L 957.00 366.00 L 956.00 367.00 L 948.00 367.00 L 944.00 365.00 L 934.00 355.00 L 934.00 352.00 L 948.00 337.00 L 950.00 337.00 L 957.00 344.00 L 959.00 348.00 L 958.00 349.00 L 957.00 354.00 L 958.00 354.00 L 968.00 343.00 L 968.00 342.00 L 966.00 342.00 L 963.00 344.00 L 960.00 343.00 L 951.00 334.00 L 951.00 333.00 L 965.00 319.00 L 967.00 319.00 L 977.00 329.00 L 978.00 331.00 L 978.00 337.00 L 977.00 338.00 L 977.00 341.00 L 978.00 341.00 L 985.00 334.00 L 985.00 333.00 L 984.00 333.00 Z M 324.00 300.00 L 323.00 300.00 L 313.00 310.00 L 313.00 311.00 L 320.00 309.00 L 344.00 332.00 L 343.00 333.00 L 336.00 333.00 L 335.00 332.00 L 325.00 332.00 L 324.00 331.00 L 315.00 331.00 L 314.00 330.00 L 305.00 330.00 L 304.00 329.00 L 294.00 329.00 L 285.00 338.00 L 285.00 339.00 L 286.00 339.00 L 289.00 337.00 L 293.00 337.00 L 324.00 368.00 L 324.00 372.00 L 322.00 376.00 L 323.00 376.00 L 334.00 365.00 L 335.00 365.00 L 336.00 363.00 L 333.00 363.00 L 331.00 365.00 L 327.00 365.00 L 325.00 364.00 L 310.00 349.00 L 309.00 349.00 L 302.00 341.00 L 300.00 340.00 L 301.00 338.00 L 303.00 339.00 L 311.00 339.00 L 312.00 340.00 L 331.00 341.00 L 332.00 342.00 L 353.00 343.00 L 354.00 344.00 L 357.00 344.00 L 358.00 343.00 L 358.00 342.00 L 323.00 307.00 L 323.00 303.00 L 324.00 302.00 Z M 328.00 296.00 L 328.00 297.00 L 333.00 296.00 L 379.00 320.00 L 382.00 320.00 L 382.00 318.00 L 365.00 284.00 L 366.00 282.00 L 396.00 297.00 L 403.00 299.00 L 403.00 296.00 L 402.00 294.00 L 397.00 289.00 L 396.00 289.00 L 391.00 285.00 L 369.00 274.00 L 367.00 274.00 L 361.00 271.00 L 358.00 268.00 L 357.00 268.00 L 351.00 274.00 L 351.00 275.00 L 353.00 275.00 L 357.00 277.00 L 360.00 280.00 L 364.00 289.00 L 366.00 291.00 L 373.00 305.00 L 372.00 307.00 L 370.00 305.00 L 359.00 300.00 L 357.00 298.00 L 344.00 292.00 L 340.00 288.00 L 342.00 284.00 L 340.00 284.00 Z M 912.00 262.00 L 911.00 262.00 L 911.00 263.00 L 912.00 264.00 L 913.00 269.00 L 911.00 271.00 L 911.00 272.00 L 894.00 289.00 L 894.00 290.00 L 884.00 300.00 L 882.00 301.00 L 876.00 300.00 L 876.00 301.00 L 887.00 312.00 L 888.00 312.00 L 885.00 306.00 L 886.00 303.00 L 910.00 277.00 L 912.00 278.00 L 911.00 279.00 L 910.00 312.00 L 909.00 313.00 L 909.00 328.00 L 908.00 329.00 L 908.00 333.00 L 909.00 334.00 L 910.00 334.00 L 944.00 299.00 L 948.00 299.00 L 950.00 300.00 L 950.00 299.00 L 940.00 289.00 L 939.00 289.00 L 941.00 293.00 L 941.00 297.00 L 921.00 318.00 L 921.00 319.00 L 919.00 320.00 L 918.00 319.00 L 918.00 315.00 L 919.00 314.00 L 920.00 271.00 L 919.00 269.00 Z M 380.00 244.00 L 378.00 246.00 L 378.00 247.00 L 369.00 255.00 L 369.00 256.00 L 376.00 254.00 L 379.00 257.00 L 393.00 283.00 L 395.00 285.00 L 396.00 285.00 L 396.00 283.00 L 385.00 261.00 L 383.00 259.00 L 381.00 255.00 L 381.00 253.00 L 380.00 252.00 L 381.00 244.00 Z M 643.00 155.00 L 642.00 161.00 L 641.00 162.00 L 641.00 166.00 L 640.00 167.00 L 640.00 171.00 L 639.00 172.00 L 639.00 178.00 L 638.00 179.00 L 638.00 184.00 L 637.00 185.00 L 637.00 190.00 L 636.00 191.00 L 636.00 196.00 L 635.00 197.00 L 635.00 202.00 L 634.00 203.00 L 634.00 208.00 L 633.00 209.00 L 633.00 214.00 L 632.00 215.00 L 632.00 220.00 L 631.00 221.00 L 631.00 226.00 L 630.00 227.00 L 630.00 232.00 L 629.00 233.00 L 629.00 239.00 L 628.00 240.00 L 628.00 245.00 L 627.00 246.00 L 627.00 252.00 L 626.00 253.00 L 626.00 258.00 L 625.00 259.00 L 625.00 265.00 L 624.00 266.00 L 623.00 278.00 L 622.00 279.00 L 622.00 282.00 L 621.00 283.00 L 614.00 283.00 L 613.00 284.00 L 599.00 285.00 L 598.00 286.00 L 587.00 287.00 L 586.00 288.00 L 582.00 288.00 L 581.00 289.00 L 572.00 290.00 L 571.00 291.00 L 568.00 291.00 L 567.00 292.00 L 564.00 292.00 L 563.00 293.00 L 559.00 293.00 L 558.00 294.00 L 556.00 294.00 L 555.00 295.00 L 553.00 295.00 L 552.00 296.00 L 550.00 296.00 L 549.00 297.00 L 547.00 297.00 L 540.00 300.00 L 537.00 300.00 L 534.00 302.00 L 529.00 303.00 L 526.00 305.00 L 519.00 307.00 L 514.00 310.00 L 512.00 310.00 L 497.00 318.00 L 493.00 319.00 L 491.00 321.00 L 482.00 325.00 L 480.00 327.00 L 475.00 329.00 L 470.00 333.00 L 467.00 334.00 L 465.00 336.00 L 455.00 342.00 L 444.00 351.00 L 443.00 351.00 L 420.00 371.00 L 417.00 370.00 L 404.00 359.00 L 403.00 359.00 L 400.00 356.00 L 399.00 356.00 L 396.00 353.00 L 395.00 353.00 L 392.00 350.00 L 391.00 350.00 L 388.00 347.00 L 383.00 344.00 L 383.00 346.00 L 390.00 354.00 L 390.00 355.00 L 400.00 367.00 L 400.00 368.00 L 404.00 372.00 L 404.00 373.00 L 407.00 376.00 L 410.00 381.00 L 397.00 395.00 L 397.00 396.00 L 392.00 401.00 L 392.00 402.00 L 381.00 415.00 L 381.00 416.00 L 367.00 436.00 L 366.00 439.00 L 364.00 441.00 L 348.00 472.00 L 348.00 474.00 L 345.00 479.00 L 345.00 481.00 L 343.00 484.00 L 343.00 486.00 L 339.00 494.00 L 339.00 496.00 L 338.00 497.00 L 338.00 499.00 L 337.00 500.00 L 337.00 502.00 L 336.00 503.00 L 336.00 505.00 L 335.00 506.00 L 335.00 508.00 L 332.00 515.00 L 331.00 522.00 L 329.00 526.00 L 329.00 530.00 L 328.00 531.00 L 327.00 539.00 L 326.00 540.00 L 326.00 543.00 L 325.00 544.00 L 325.00 549.00 L 324.00 550.00 L 323.00 561.00 L 322.00 562.00 L 321.00 578.00 L 319.00 580.00 L 314.00 580.00 L 313.00 581.00 L 308.00 581.00 L 307.00 582.00 L 301.00 582.00 L 300.00 583.00 L 295.00 583.00 L 294.00 584.00 L 288.00 584.00 L 287.00 585.00 L 282.00 585.00 L 281.00 586.00 L 275.00 586.00 L 274.00 587.00 L 269.00 587.00 L 268.00 588.00 L 263.00 588.00 L 262.00 589.00 L 256.00 589.00 L 255.00 590.00 L 250.00 590.00 L 249.00 591.00 L 244.00 591.00 L 243.00 592.00 L 237.00 592.00 L 236.00 593.00 L 231.00 593.00 L 230.00 594.00 L 224.00 594.00 L 223.00 595.00 L 218.00 595.00 L 217.00 596.00 L 212.00 596.00 L 211.00 597.00 L 205.00 597.00 L 204.00 598.00 L 200.00 598.00 L 199.00 599.00 L 190.00 600.00 L 188.00 601.00 L 188.00 602.00 L 192.00 602.00 L 193.00 603.00 L 196.00 603.00 L 197.00 604.00 L 202.00 604.00 L 203.00 605.00 L 207.00 605.00 L 208.00 606.00 L 212.00 606.00 L 213.00 607.00 L 218.00 607.00 L 219.00 608.00 L 223.00 608.00 L 224.00 609.00 L 229.00 609.00 L 230.00 610.00 L 235.00 610.00 L 236.00 611.00 L 242.00 611.00 L 243.00 612.00 L 247.00 612.00 L 248.00 613.00 L 259.00 614.00 L 260.00 615.00 L 264.00 615.00 L 265.00 616.00 L 270.00 616.00 L 271.00 617.00 L 276.00 617.00 L 277.00 618.00 L 282.00 618.00 L 283.00 619.00 L 288.00 619.00 L 289.00 620.00 L 294.00 620.00 L 295.00 621.00 L 300.00 621.00 L 301.00 622.00 L 306.00 622.00 L 307.00 623.00 L 318.00 624.00 L 320.00 626.00 L 320.00 635.00 L 321.00 636.00 L 321.00 642.00 L 322.00 643.00 L 323.00 656.00 L 324.00 657.00 L 324.00 661.00 L 325.00 662.00 L 325.00 666.00 L 326.00 667.00 L 326.00 671.00 L 327.00 672.00 L 327.00 676.00 L 328.00 677.00 L 330.00 688.00 L 332.00 692.00 L 332.00 695.00 L 333.00 696.00 L 333.00 698.00 L 335.00 702.00 L 335.00 705.00 L 337.00 708.00 L 339.00 716.00 L 344.00 726.00 L 344.00 728.00 L 347.00 733.00 L 347.00 735.00 L 350.00 740.00 L 350.00 742.00 L 359.00 760.00 L 361.00 762.00 L 361.00 764.00 L 365.00 769.00 L 366.00 772.00 L 368.00 774.00 L 378.00 790.00 L 381.00 793.00 L 383.00 797.00 L 390.00 805.00 L 390.00 806.00 L 408.00 826.00 L 408.00 828.00 L 385.00 857.00 L 382.00 863.00 L 383.00 863.00 L 386.00 860.00 L 387.00 860.00 L 390.00 857.00 L 395.00 854.00 L 399.00 850.00 L 400.00 850.00 L 404.00 846.00 L 405.00 846.00 L 409.00 842.00 L 410.00 842.00 L 413.00 839.00 L 418.00 836.00 L 433.00 850.00 L 434.00 850.00 L 439.00 855.00 L 440.00 855.00 L 444.00 859.00 L 445.00 859.00 L 456.00 868.00 L 457.00 868.00 L 471.00 878.00 L 474.00 879.00 L 479.00 883.00 L 510.00 899.00 L 512.00 899.00 L 517.00 902.00 L 519.00 902.00 L 524.00 905.00 L 529.00 906.00 L 532.00 908.00 L 534.00 908.00 L 535.00 909.00 L 540.00 910.00 L 543.00 912.00 L 549.00 913.00 L 552.00 915.00 L 555.00 915.00 L 559.00 917.00 L 563.00 917.00 L 564.00 918.00 L 567.00 918.00 L 568.00 919.00 L 572.00 919.00 L 573.00 920.00 L 581.00 921.00 L 582.00 922.00 L 587.00 922.00 L 588.00 923.00 L 593.00 923.00 L 594.00 924.00 L 600.00 924.00 L 601.00 925.00 L 608.00 925.00 L 609.00 926.00 L 616.00 926.00 L 617.00 927.00 L 621.00 927.00 L 623.00 931.00 L 624.00 943.00 L 625.00 944.00 L 626.00 954.00 L 627.00 955.00 L 627.00 961.00 L 628.00 962.00 L 628.00 967.00 L 629.00 968.00 L 629.00 973.00 L 630.00 974.00 L 630.00 980.00 L 631.00 981.00 L 631.00 986.00 L 632.00 987.00 L 633.00 998.00 L 634.00 999.00 L 634.00 1003.00 L 635.00 1004.00 L 635.00 1010.00 L 636.00 1011.00 L 636.00 1016.00 L 637.00 1017.00 L 637.00 1022.00 L 638.00 1023.00 L 638.00 1028.00 L 639.00 1029.00 L 639.00 1034.00 L 640.00 1035.00 L 641.00 1046.00 L 642.00 1047.00 L 642.00 1051.00 L 643.00 1052.00 L 643.00 1054.00 L 645.00 1054.00 L 646.00 1048.00 L 647.00 1047.00 L 647.00 1043.00 L 648.00 1042.00 L 648.00 1037.00 L 649.00 1036.00 L 650.00 1026.00 L 651.00 1025.00 L 651.00 1019.00 L 652.00 1018.00 L 652.00 1013.00 L 653.00 1012.00 L 653.00 1007.00 L 654.00 1006.00 L 654.00 1001.00 L 655.00 1000.00 L 655.00 995.00 L 656.00 994.00 L 656.00 989.00 L 657.00 988.00 L 657.00 982.00 L 658.00 981.00 L 659.00 969.00 L 660.00 968.00 L 660.00 963.00 L 661.00 962.00 L 661.00 957.00 L 662.00 956.00 L 662.00 951.00 L 663.00 950.00 L 663.00 944.00 L 664.00 943.00 L 665.00 931.00 L 667.00 927.00 L 674.00 927.00 L 675.00 926.00 L 682.00 926.00 L 683.00 925.00 L 697.00 924.00 L 698.00 923.00 L 703.00 923.00 L 704.00 922.00 L 708.00 922.00 L 709.00 921.00 L 713.00 921.00 L 714.00 920.00 L 718.00 920.00 L 719.00 919.00 L 728.00 918.00 L 729.00 917.00 L 732.00 917.00 L 733.00 916.00 L 738.00 915.00 L 741.00 913.00 L 752.00 910.00 L 755.00 908.00 L 760.00 907.00 L 763.00 905.00 L 770.00 903.00 L 775.00 900.00 L 777.00 900.00 L 807.00 885.00 L 809.00 883.00 L 812.00 882.00 L 814.00 880.00 L 836.00 866.00 L 844.00 859.00 L 849.00 856.00 L 870.00 837.00 L 874.00 841.00 L 875.00 841.00 L 883.00 848.00 L 884.00 848.00 L 887.00 851.00 L 892.00 854.00 L 896.00 858.00 L 904.00 863.00 L 903.00 860.00 L 900.00 857.00 L 900.00 856.00 L 897.00 853.00 L 894.00 848.00 L 890.00 844.00 L 887.00 839.00 L 883.00 835.00 L 883.00 834.00 L 880.00 831.00 L 879.00 828.00 L 896.00 810.00 L 896.00 809.00 L 900.00 805.00 L 900.00 804.00 L 912.00 789.00 L 912.00 788.00 L 924.00 771.00 L 925.00 768.00 L 929.00 763.00 L 936.00 749.00 L 936.00 747.00 L 942.00 736.00 L 942.00 734.00 L 945.00 729.00 L 945.00 727.00 L 949.00 719.00 L 950.00 714.00 L 952.00 711.00 L 952.00 709.00 L 954.00 705.00 L 954.00 702.00 L 955.00 701.00 L 955.00 699.00 L 958.00 692.00 L 958.00 689.00 L 960.00 685.00 L 961.00 677.00 L 962.00 676.00 L 962.00 673.00 L 963.00 672.00 L 964.00 661.00 L 965.00 660.00 L 965.00 656.00 L 966.00 655.00 L 966.00 649.00 L 967.00 648.00 L 967.00 641.00 L 968.00 640.00 L 969.00 627.00 L 971.00 625.00 L 981.00 624.00 L 982.00 623.00 L 988.00 623.00 L 989.00 622.00 L 994.00 622.00 L 995.00 621.00 L 1000.00 621.00 L 1001.00 620.00 L 1006.00 620.00 L 1007.00 619.00 L 1012.00 619.00 L 1013.00 618.00 L 1019.00 618.00 L 1020.00 617.00 L 1025.00 617.00 L 1026.00 616.00 L 1031.00 616.00 L 1032.00 615.00 L 1037.00 615.00 L 1038.00 614.00 L 1043.00 614.00 L 1044.00 613.00 L 1049.00 613.00 L 1050.00 612.00 L 1055.00 612.00 L 1056.00 611.00 L 1067.00 610.00 L 1068.00 609.00 L 1072.00 609.00 L 1073.00 608.00 L 1085.00 607.00 L 1086.00 606.00 L 1090.00 606.00 L 1091.00 605.00 L 1099.00 604.00 L 1099.00 603.00 L 1098.00 602.00 L 1095.00 602.00 L 1094.00 601.00 L 1084.00 600.00 L 1083.00 599.00 L 1079.00 599.00 L 1078.00 598.00 L 1066.00 597.00 L 1065.00 596.00 L 1060.00 596.00 L 1059.00 595.00 L 1054.00 595.00 L 1053.00 594.00 L 1048.00 594.00 L 1047.00 593.00 L 1042.00 593.00 L 1041.00 592.00 L 1036.00 592.00 L 1035.00 591.00 L 1030.00 591.00 L 1029.00 590.00 L 1024.00 590.00 L 1023.00 589.00 L 1018.00 589.00 L 1017.00 588.00 L 1005.00 587.00 L 1004.00 586.00 L 999.00 586.00 L 998.00 585.00 L 993.00 585.00 L 992.00 584.00 L 986.00 584.00 L 985.00 583.00 L 980.00 583.00 L 979.00 582.00 L 973.00 582.00 L 972.00 581.00 L 970.00 581.00 L 969.00 580.00 L 969.00 573.00 L 968.00 572.00 L 968.00 565.00 L 967.00 564.00 L 966.00 552.00 L 965.00 551.00 L 964.00 541.00 L 963.00 540.00 L 963.00 536.00 L 962.00 535.00 L 962.00 531.00 L 961.00 530.00 L 959.00 519.00 L 958.00 518.00 L 958.00 516.00 L 955.00 509.00 L 955.00 506.00 L 954.00 505.00 L 953.00 500.00 L 951.00 497.00 L 949.00 489.00 L 947.00 486.00 L 945.00 479.00 L 942.00 474.00 L 942.00 472.00 L 927.00 442.00 L 919.00 431.00 L 918.00 428.00 L 915.00 425.00 L 914.00 422.00 L 910.00 418.00 L 908.00 414.00 L 905.00 411.00 L 902.00 406.00 L 897.00 401.00 L 897.00 400.00 L 880.00 382.00 L 891.00 368.00 L 891.00 367.00 L 899.00 358.00 L 906.00 347.00 L 904.00 347.00 L 901.00 350.00 L 897.00 352.00 L 894.00 355.00 L 893.00 355.00 L 890.00 358.00 L 889.00 358.00 L 886.00 361.00 L 881.00 364.00 L 873.00 371.00 L 870.00 372.00 L 855.00 358.00 L 854.00 358.00 L 850.00 354.00 L 845.00 351.00 L 841.00 347.00 L 837.00 345.00 L 833.00 341.00 L 830.00 340.00 L 828.00 338.00 L 827.00 338.00 L 816.00 330.00 L 808.00 326.00 L 806.00 324.00 L 778.00 310.00 L 776.00 310.00 L 771.00 307.00 L 769.00 307.00 L 761.00 303.00 L 756.00 302.00 L 753.00 300.00 L 751.00 300.00 L 750.00 299.00 L 748.00 299.00 L 747.00 298.00 L 745.00 298.00 L 744.00 297.00 L 742.00 297.00 L 741.00 296.00 L 739.00 296.00 L 732.00 293.00 L 725.00 292.00 L 724.00 291.00 L 720.00 291.00 L 719.00 290.00 L 715.00 290.00 L 714.00 289.00 L 710.00 289.00 L 709.00 288.00 L 705.00 288.00 L 704.00 287.00 L 700.00 287.00 L 699.00 286.00 L 686.00 285.00 L 685.00 284.00 L 678.00 284.00 L 677.00 283.00 L 667.00 283.00 L 665.00 281.00 L 665.00 278.00 L 664.00 277.00 L 664.00 272.00 L 663.00 271.00 L 663.00 266.00 L 662.00 265.00 L 662.00 260.00 L 661.00 259.00 L 661.00 254.00 L 660.00 253.00 L 660.00 248.00 L 659.00 247.00 L 659.00 242.00 L 658.00 241.00 L 658.00 236.00 L 657.00 235.00 L 657.00 230.00 L 656.00 229.00 L 656.00 224.00 L 655.00 223.00 L 655.00 218.00 L 654.00 217.00 L 654.00 212.00 L 653.00 211.00 L 653.00 206.00 L 652.00 205.00 L 652.00 200.00 L 651.00 199.00 L 651.00 194.00 L 650.00 193.00 L 650.00 188.00 L 649.00 187.00 L 649.00 181.00 L 648.00 180.00 L 648.00 175.00 L 647.00 174.00 L 646.00 163.00 L 645.00 162.00 L 645.00 158.00 L 644.00 157.00 L 644.00 155.00 Z M 728.00 913.00 L 727.00 914.00 L 721.00 915.00 L 720.00 916.00 L 716.00 916.00 L 715.00 917.00 L 711.00 917.00 L 710.00 918.00 L 706.00 918.00 L 705.00 919.00 L 700.00 919.00 L 699.00 920.00 L 687.00 921.00 L 686.00 922.00 L 679.00 922.00 L 678.00 923.00 L 668.00 923.00 L 667.00 922.00 L 668.00 911.00 L 670.00 909.00 L 686.00 908.00 L 687.00 907.00 L 692.00 907.00 L 693.00 906.00 L 704.00 905.00 L 705.00 904.00 L 714.00 903.00 L 715.00 902.00 L 718.00 902.00 L 719.00 901.00 L 722.00 901.00 L 723.00 900.00 L 725.00 903.00 L 725.00 905.00 L 727.00 909.00 L 727.00 912.00 Z M 564.00 903.00 L 565.00 901.00 L 567.00 900.00 L 568.00 901.00 L 571.00 901.00 L 572.00 902.00 L 576.00 902.00 L 577.00 903.00 L 580.00 903.00 L 581.00 904.00 L 586.00 904.00 L 587.00 905.00 L 591.00 905.00 L 592.00 906.00 L 597.00 906.00 L 598.00 907.00 L 604.00 907.00 L 605.00 908.00 L 618.00 909.00 L 620.00 913.00 L 620.00 918.00 L 621.00 919.00 L 621.00 922.00 L 620.00 923.00 L 604.00 922.00 L 603.00 921.00 L 597.00 921.00 L 596.00 920.00 L 592.00 920.00 L 591.00 919.00 L 586.00 919.00 L 585.00 918.00 L 580.00 918.00 L 579.00 917.00 L 575.00 917.00 L 574.00 916.00 L 566.00 915.00 L 562.00 913.00 L 563.00 907.00 L 564.00 906.00 Z M 806.00 880.00 L 803.00 883.00 L 768.00 900.00 L 766.00 900.00 L 758.00 904.00 L 750.00 906.00 L 747.00 908.00 L 745.00 908.00 L 744.00 909.00 L 742.00 909.00 L 741.00 910.00 L 739.00 910.00 L 732.00 913.00 L 730.00 911.00 L 730.00 908.00 L 728.00 904.00 L 728.00 900.00 L 730.00 898.00 L 733.00 898.00 L 734.00 897.00 L 745.00 894.00 L 748.00 892.00 L 753.00 891.00 L 756.00 889.00 L 761.00 888.00 L 796.00 871.00 L 798.00 869.00 L 799.00 869.00 L 801.00 871.00 L 802.00 874.00 L 804.00 876.00 Z M 484.00 879.00 L 487.00 875.00 L 488.00 872.00 L 491.00 869.00 L 495.00 871.00 L 497.00 873.00 L 526.00 887.00 L 528.00 887.00 L 536.00 891.00 L 538.00 891.00 L 539.00 892.00 L 541.00 892.00 L 542.00 893.00 L 544.00 893.00 L 545.00 894.00 L 547.00 894.00 L 548.00 895.00 L 550.00 895.00 L 557.00 898.00 L 560.00 898.00 L 562.00 900.00 L 561.00 901.00 L 561.00 904.00 L 560.00 905.00 L 559.00 911.00 L 558.00 912.00 L 555.00 912.00 L 554.00 911.00 L 552.00 911.00 L 551.00 910.00 L 549.00 910.00 L 548.00 909.00 L 534.00 905.00 L 531.00 903.00 L 529.00 903.00 L 521.00 899.00 L 519.00 899.00 L 512.00 895.00 L 510.00 895.00 L 494.00 887.00 L 492.00 885.00 L 488.00 884.00 L 484.00 881.00 Z M 716.00 868.00 L 716.00 871.00 L 717.00 872.00 L 717.00 875.00 L 718.00 876.00 L 718.00 879.00 L 720.00 883.00 L 721.00 890.00 L 722.00 891.00 L 722.00 893.00 L 720.00 895.00 L 717.00 895.00 L 716.00 896.00 L 713.00 896.00 L 712.00 897.00 L 708.00 897.00 L 707.00 898.00 L 704.00 898.00 L 703.00 899.00 L 699.00 899.00 L 698.00 900.00 L 692.00 900.00 L 691.00 901.00 L 685.00 901.00 L 684.00 902.00 L 678.00 902.00 L 677.00 903.00 L 671.00 903.00 L 670.00 902.00 L 671.00 891.00 L 672.00 890.00 L 672.00 884.00 L 673.00 883.00 L 673.00 878.00 L 674.00 877.00 L 674.00 874.00 L 676.00 872.00 L 684.00 872.00 L 685.00 871.00 L 690.00 871.00 L 691.00 870.00 L 695.00 870.00 L 696.00 869.00 L 705.00 868.00 L 706.00 867.00 L 709.00 867.00 L 710.00 866.00 L 713.00 866.00 L 714.00 865.00 Z M 573.00 867.00 L 575.00 865.00 L 576.00 866.00 L 579.00 866.00 L 580.00 867.00 L 583.00 867.00 L 584.00 868.00 L 588.00 868.00 L 589.00 869.00 L 593.00 869.00 L 594.00 870.00 L 599.00 870.00 L 600.00 871.00 L 605.00 871.00 L 606.00 872.00 L 612.00 872.00 L 614.00 874.00 L 614.00 879.00 L 615.00 880.00 L 615.00 885.00 L 616.00 886.00 L 616.00 892.00 L 617.00 893.00 L 617.00 898.00 L 618.00 899.00 L 618.00 902.00 L 617.00 903.00 L 614.00 903.00 L 613.00 902.00 L 606.00 902.00 L 605.00 901.00 L 599.00 901.00 L 598.00 900.00 L 587.00 899.00 L 586.00 898.00 L 582.00 898.00 L 581.00 897.00 L 578.00 897.00 L 577.00 896.00 L 569.00 895.00 L 567.00 893.00 L 567.00 891.00 L 568.00 890.00 L 568.00 887.00 L 569.00 886.00 L 569.00 883.00 L 570.00 882.00 L 570.00 879.00 L 571.00 878.00 Z M 506.00 841.00 L 508.00 839.00 L 510.00 839.00 L 535.00 852.00 L 537.00 852.00 L 540.00 854.00 L 542.00 854.00 L 550.00 858.00 L 552.00 858.00 L 553.00 859.00 L 555.00 859.00 L 556.00 860.00 L 570.00 864.00 L 571.00 865.00 L 570.00 866.00 L 570.00 869.00 L 569.00 870.00 L 569.00 873.00 L 568.00 874.00 L 568.00 877.00 L 567.00 878.00 L 567.00 881.00 L 566.00 882.00 L 566.00 885.00 L 565.00 886.00 L 564.00 892.00 L 563.00 893.00 L 561.00 892.00 L 558.00 892.00 L 557.00 891.00 L 555.00 891.00 L 554.00 890.00 L 540.00 886.00 L 537.00 884.00 L 532.00 883.00 L 518.00 876.00 L 516.00 876.00 L 506.00 871.00 L 504.00 869.00 L 495.00 865.00 L 494.00 864.00 L 494.00 862.00 L 497.00 858.00 L 500.00 851.00 L 502.00 849.00 Z M 782.00 839.00 L 783.00 842.00 L 785.00 844.00 L 786.00 847.00 L 788.00 849.00 L 789.00 852.00 L 791.00 854.00 L 793.00 859.00 L 796.00 863.00 L 794.00 865.00 L 771.00 877.00 L 769.00 877.00 L 757.00 883.00 L 752.00 884.00 L 749.00 886.00 L 747.00 886.00 L 741.00 889.00 L 735.00 890.00 L 728.00 893.00 L 726.00 893.00 L 725.00 892.00 L 724.00 886.00 L 723.00 885.00 L 723.00 882.00 L 722.00 881.00 L 722.00 878.00 L 721.00 877.00 L 721.00 874.00 L 720.00 873.00 L 719.00 867.00 L 718.00 866.00 L 719.00 864.00 L 721.00 864.00 L 722.00 863.00 L 724.00 863.00 L 725.00 862.00 L 739.00 858.00 L 742.00 856.00 L 749.00 854.00 L 754.00 851.00 L 756.00 851.00 L 778.00 840.00 L 780.00 838.00 Z M 867.00 835.00 L 848.00 852.00 L 847.00 852.00 L 828.00 867.00 L 827.00 867.00 L 810.00 879.00 L 807.00 876.00 L 806.00 873.00 L 803.00 869.00 L 803.00 867.00 L 808.00 863.00 L 811.00 862.00 L 813.00 860.00 L 820.00 856.00 L 830.00 848.00 L 831.00 848.00 L 846.00 835.00 L 847.00 835.00 L 854.00 828.00 L 857.00 827.00 Z M 421.00 833.00 L 431.00 825.00 L 433.00 827.00 L 434.00 827.00 L 442.00 835.00 L 443.00 835.00 L 454.00 845.00 L 455.00 845.00 L 462.00 851.00 L 469.00 855.00 L 472.00 858.00 L 484.00 865.00 L 487.00 868.00 L 484.00 872.00 L 482.00 877.00 L 480.00 879.00 L 461.00 867.00 L 458.00 864.00 L 457.00 864.00 L 454.00 861.00 L 453.00 861.00 L 450.00 858.00 L 449.00 858.00 L 446.00 855.00 L 441.00 852.00 L 423.00 835.00 L 422.00 835.00 Z M 851.00 822.00 L 851.00 823.00 L 849.00 825.00 L 848.00 825.00 L 841.00 832.00 L 840.00 832.00 L 830.00 841.00 L 829.00 841.00 L 822.00 847.00 L 818.00 849.00 L 815.00 852.00 L 800.00 861.00 L 799.00 861.00 L 797.00 859.00 L 794.00 853.00 L 792.00 851.00 L 790.00 846.00 L 788.00 844.00 L 786.00 839.00 L 784.00 837.00 L 787.00 834.00 L 793.00 831.00 L 795.00 829.00 L 802.00 825.00 L 805.00 822.00 L 809.00 820.00 L 828.00 804.00 L 832.00 806.00 L 838.00 812.00 L 839.00 812.00 Z M 436.00 821.00 L 459.00 802.00 L 476.00 817.00 L 477.00 817.00 L 484.00 823.00 L 485.00 823.00 L 491.00 828.00 L 497.00 831.00 L 505.00 837.00 L 490.00 862.00 L 477.00 853.00 L 474.00 852.00 L 471.00 849.00 L 470.00 849.00 L 460.00 841.00 L 459.00 841.00 Z M 825.00 801.00 L 824.00 803.00 L 823.00 803.00 L 812.00 813.00 L 811.00 813.00 L 803.00 820.00 L 802.00 820.00 L 788.00 830.00 L 785.00 831.00 L 778.00 836.00 L 754.00 848.00 L 752.00 848.00 L 747.00 851.00 L 745.00 851.00 L 742.00 853.00 L 737.00 854.00 L 734.00 856.00 L 732.00 856.00 L 725.00 859.00 L 722.00 859.00 L 718.00 861.00 L 715.00 861.00 L 714.00 862.00 L 711.00 862.00 L 710.00 863.00 L 707.00 863.00 L 706.00 864.00 L 703.00 864.00 L 702.00 865.00 L 693.00 866.00 L 692.00 867.00 L 681.00 868.00 L 680.00 869.00 L 676.00 869.00 L 675.00 868.00 L 676.00 857.00 L 677.00 856.00 L 677.00 851.00 L 678.00 850.00 L 678.00 845.00 L 679.00 844.00 L 679.00 838.00 L 680.00 837.00 L 680.00 832.00 L 681.00 831.00 L 681.00 825.00 L 682.00 824.00 L 682.00 819.00 L 683.00 818.00 L 683.00 813.00 L 685.00 811.00 L 687.00 810.00 L 695.00 809.00 L 696.00 808.00 L 699.00 808.00 L 700.00 807.00 L 703.00 807.00 L 704.00 806.00 L 706.00 806.00 L 707.00 805.00 L 721.00 801.00 L 733.00 795.00 L 735.00 795.00 L 745.00 790.00 L 747.00 788.00 L 754.00 785.00 L 762.00 779.00 L 765.00 778.00 L 768.00 775.00 L 772.00 773.00 L 782.00 765.00 L 784.00 765.00 L 791.00 772.00 L 792.00 772.00 Z M 462.00 800.00 L 505.00 763.00 L 509.00 767.00 L 510.00 767.00 L 513.00 770.00 L 514.00 770.00 L 517.00 773.00 L 518.00 773.00 L 521.00 776.00 L 522.00 776.00 L 530.00 782.00 L 533.00 783.00 L 540.00 788.00 L 558.00 797.00 L 560.00 797.00 L 568.00 801.00 L 570.00 801.00 L 571.00 802.00 L 573.00 802.00 L 574.00 803.00 L 576.00 803.00 L 583.00 806.00 L 586.00 806.00 L 587.00 807.00 L 593.00 808.00 L 594.00 809.00 L 603.00 810.00 L 604.00 811.00 L 604.00 815.00 L 605.00 816.00 L 606.00 828.00 L 607.00 829.00 L 607.00 834.00 L 608.00 835.00 L 608.00 840.00 L 609.00 841.00 L 609.00 847.00 L 610.00 848.00 L 610.00 853.00 L 611.00 854.00 L 611.00 860.00 L 612.00 861.00 L 612.00 867.00 L 613.00 868.00 L 612.00 869.00 L 610.00 869.00 L 609.00 868.00 L 603.00 868.00 L 602.00 867.00 L 597.00 867.00 L 596.00 866.00 L 587.00 865.00 L 586.00 864.00 L 583.00 864.00 L 582.00 863.00 L 571.00 861.00 L 567.00 859.00 L 564.00 859.00 L 563.00 858.00 L 555.00 856.00 L 552.00 854.00 L 544.00 852.00 L 539.00 849.00 L 537.00 849.00 L 504.00 832.00 L 502.00 830.00 L 486.00 820.00 L 483.00 817.00 L 482.00 817.00 L 478.00 813.00 L 477.00 813.00 L 473.00 809.00 L 472.00 809.00 L 468.00 805.00 L 467.00 805.00 Z M 922.00 762.00 L 924.00 764.00 L 920.00 769.00 L 919.00 772.00 L 917.00 774.00 L 909.00 787.00 L 906.00 790.00 L 906.00 791.00 L 903.00 794.00 L 900.00 799.00 L 891.00 809.00 L 891.00 810.00 L 883.00 818.00 L 883.00 819.00 L 881.00 820.00 L 881.00 821.00 L 877.00 825.00 L 876.00 825.00 L 868.00 816.00 L 869.00 813.00 L 878.00 804.00 L 878.00 803.00 L 891.00 788.00 L 891.00 787.00 L 897.00 780.00 L 897.00 779.00 L 907.00 765.00 L 908.00 762.00 L 912.00 757.00 Z M 367.00 762.00 L 377.00 757.00 L 380.00 760.00 L 381.00 763.00 L 383.00 765.00 L 386.00 771.00 L 389.00 774.00 L 395.00 784.00 L 403.00 793.00 L 406.00 798.00 L 419.00 812.00 L 419.00 814.00 L 411.00 823.00 L 410.00 823.00 L 406.00 819.00 L 406.00 818.00 L 399.00 811.00 L 399.00 810.00 L 386.00 795.00 L 386.00 794.00 L 381.00 788.00 L 381.00 787.00 L 369.00 770.00 L 368.00 767.00 L 366.00 765.00 L 366.00 763.00 Z M 780.00 762.00 L 769.00 771.00 L 768.00 771.00 L 754.00 781.00 L 727.00 795.00 L 725.00 795.00 L 717.00 799.00 L 715.00 799.00 L 714.00 800.00 L 712.00 800.00 L 705.00 803.00 L 702.00 803.00 L 698.00 805.00 L 690.00 806.00 L 689.00 807.00 L 686.00 807.00 L 685.00 806.00 L 685.00 800.00 L 686.00 799.00 L 686.00 793.00 L 687.00 792.00 L 693.00 791.00 L 694.00 790.00 L 697.00 790.00 L 698.00 789.00 L 701.00 789.00 L 702.00 788.00 L 710.00 786.00 L 713.00 784.00 L 715.00 784.00 L 718.00 782.00 L 720.00 782.00 L 725.00 779.00 L 727.00 779.00 L 739.00 773.00 L 741.00 771.00 L 746.00 769.00 L 748.00 767.00 L 758.00 761.00 L 768.00 753.00 L 770.00 753.00 Z M 508.00 761.00 L 515.00 754.00 L 519.00 752.00 L 529.00 760.00 L 530.00 760.00 L 544.00 770.00 L 566.00 781.00 L 568.00 781.00 L 571.00 783.00 L 573.00 783.00 L 576.00 785.00 L 578.00 785.00 L 579.00 786.00 L 581.00 786.00 L 588.00 789.00 L 599.00 791.00 L 601.00 793.00 L 601.00 795.00 L 602.00 796.00 L 603.00 806.00 L 602.00 807.00 L 600.00 807.00 L 599.00 806.00 L 596.00 806.00 L 595.00 805.00 L 591.00 805.00 L 587.00 803.00 L 584.00 803.00 L 583.00 802.00 L 572.00 799.00 L 569.00 797.00 L 564.00 796.00 L 555.00 791.00 L 553.00 791.00 L 545.00 787.00 L 543.00 785.00 L 538.00 783.00 L 536.00 781.00 L 533.00 780.00 L 531.00 778.00 L 521.00 772.00 L 518.00 769.00 L 517.00 769.00 Z M 882.00 739.00 L 884.00 741.00 L 889.00 743.00 L 896.00 748.00 L 903.00 751.00 L 906.00 754.00 L 890.00 779.00 L 876.00 796.00 L 876.00 797.00 L 864.00 810.00 L 853.00 797.00 L 850.00 792.00 L 846.00 788.00 L 846.00 786.00 L 857.00 774.00 L 857.00 773.00 L 866.00 762.00 L 866.00 761.00 L 878.00 744.00 L 879.00 741.00 L 881.00 739.00 Z M 407.00 739.00 L 408.00 739.00 L 410.00 741.00 L 411.00 744.00 L 415.00 749.00 L 416.00 752.00 L 421.00 758.00 L 421.00 759.00 L 431.00 772.00 L 431.00 773.00 L 442.00 785.00 L 437.00 791.00 L 437.00 792.00 L 428.00 802.00 L 428.00 803.00 L 423.00 808.00 L 409.00 792.00 L 409.00 791.00 L 399.00 779.00 L 399.00 778.00 L 387.00 761.00 L 385.00 756.00 L 383.00 754.00 L 386.00 751.00 L 391.00 749.00 L 393.00 747.00 L 398.00 745.00 L 400.00 743.00 L 403.00 742.00 Z M 703.00 694.00 L 736.00 724.00 L 737.00 724.00 L 753.00 739.00 L 754.00 739.00 L 763.00 747.00 L 742.00 762.00 L 719.00 774.00 L 717.00 774.00 L 714.00 776.00 L 712.00 776.00 L 709.00 778.00 L 707.00 778.00 L 706.00 779.00 L 704.00 779.00 L 697.00 782.00 L 689.00 783.00 L 688.00 781.00 L 689.00 780.00 L 689.00 774.00 L 690.00 773.00 L 690.00 768.00 L 691.00 767.00 L 691.00 761.00 L 692.00 760.00 L 692.00 755.00 L 693.00 754.00 L 693.00 749.00 L 694.00 748.00 L 694.00 742.00 L 695.00 741.00 L 695.00 736.00 L 696.00 735.00 L 696.00 730.00 L 697.00 729.00 L 697.00 723.00 L 698.00 722.00 L 698.00 717.00 L 699.00 716.00 L 699.00 710.00 L 700.00 709.00 L 701.00 698.00 Z M 584.00 694.00 L 586.00 695.00 L 586.00 699.00 L 587.00 700.00 L 587.00 706.00 L 588.00 707.00 L 588.00 712.00 L 589.00 713.00 L 589.00 719.00 L 590.00 720.00 L 590.00 725.00 L 591.00 726.00 L 591.00 731.00 L 592.00 732.00 L 592.00 738.00 L 593.00 739.00 L 593.00 744.00 L 594.00 745.00 L 594.00 750.00 L 595.00 751.00 L 595.00 756.00 L 596.00 757.00 L 596.00 763.00 L 597.00 764.00 L 597.00 769.00 L 598.00 770.00 L 598.00 775.00 L 599.00 776.00 L 599.00 782.00 L 598.00 783.00 L 582.00 779.00 L 579.00 777.00 L 572.00 775.00 L 567.00 772.00 L 565.00 772.00 L 553.00 766.00 L 551.00 764.00 L 548.00 763.00 L 546.00 761.00 L 533.00 753.00 L 525.00 746.00 L 550.00 724.00 L 551.00 724.00 L 575.00 702.00 L 576.00 702.00 Z M 953.00 686.00 L 955.00 688.00 L 955.00 689.00 L 954.00 690.00 L 954.00 693.00 L 952.00 697.00 L 952.00 700.00 L 950.00 703.00 L 946.00 717.00 L 944.00 720.00 L 944.00 722.00 L 942.00 725.00 L 940.00 732.00 L 934.00 743.00 L 934.00 745.00 L 929.00 755.00 L 927.00 757.00 L 927.00 758.00 L 925.00 760.00 L 924.00 760.00 L 920.00 757.00 L 915.00 755.00 L 914.00 754.00 L 914.00 752.00 L 929.00 722.00 L 929.00 720.00 L 933.00 712.00 L 933.00 710.00 L 934.00 709.00 L 934.00 707.00 L 935.00 706.00 L 935.00 704.00 L 936.00 703.00 L 936.00 701.00 L 937.00 700.00 L 937.00 698.00 L 938.00 697.00 L 938.00 695.00 L 941.00 688.00 L 941.00 685.00 L 942.00 684.00 L 945.00 684.00 L 946.00 685.00 L 950.00 685.00 L 951.00 686.00 Z M 336.00 686.00 L 342.00 685.00 L 343.00 684.00 L 347.00 684.00 L 348.00 685.00 L 348.00 687.00 L 350.00 691.00 L 350.00 694.00 L 351.00 695.00 L 353.00 703.00 L 355.00 706.00 L 357.00 714.00 L 359.00 717.00 L 359.00 719.00 L 363.00 726.00 L 363.00 728.00 L 367.00 735.00 L 367.00 737.00 L 374.00 751.00 L 376.00 753.00 L 374.00 755.00 L 369.00 757.00 L 365.00 760.00 L 364.00 760.00 L 361.00 756.00 L 354.00 742.00 L 354.00 740.00 L 349.00 731.00 L 349.00 729.00 L 346.00 724.00 L 346.00 722.00 L 344.00 719.00 L 344.00 717.00 L 343.00 716.00 L 342.00 711.00 L 340.00 708.00 L 340.00 706.00 L 339.00 705.00 L 339.00 703.00 L 336.00 696.00 L 336.00 693.00 L 334.00 688.00 Z M 911.00 675.00 L 912.00 676.00 L 915.00 676.00 L 916.00 677.00 L 919.00 677.00 L 920.00 678.00 L 931.00 680.00 L 932.00 681.00 L 934.00 681.00 L 936.00 683.00 L 934.00 687.00 L 934.00 690.00 L 933.00 691.00 L 929.00 705.00 L 927.00 708.00 L 927.00 710.00 L 924.00 716.00 L 924.00 718.00 L 922.00 721.00 L 922.00 723.00 L 909.00 749.00 L 908.00 750.00 L 906.00 750.00 L 904.00 748.00 L 899.00 746.00 L 897.00 744.00 L 885.00 738.00 L 882.00 735.00 L 884.00 733.00 L 896.00 708.00 L 896.00 706.00 L 898.00 703.00 L 898.00 701.00 L 900.00 698.00 L 902.00 690.00 L 905.00 684.00 L 906.00 677.00 L 908.00 675.00 Z M 377.00 675.00 L 381.00 675.00 L 383.00 678.00 L 383.00 680.00 L 385.00 684.00 L 385.00 687.00 L 388.00 693.00 L 388.00 695.00 L 389.00 696.00 L 390.00 701.00 L 392.00 704.00 L 392.00 706.00 L 395.00 711.00 L 395.00 713.00 L 398.00 718.00 L 398.00 720.00 L 406.00 734.00 L 406.00 736.00 L 382.00 750.00 L 379.00 747.00 L 370.00 729.00 L 370.00 727.00 L 367.00 722.00 L 367.00 720.00 L 362.00 710.00 L 362.00 708.00 L 361.00 707.00 L 361.00 705.00 L 360.00 704.00 L 360.00 702.00 L 359.00 701.00 L 359.00 699.00 L 358.00 698.00 L 358.00 696.00 L 357.00 695.00 L 357.00 693.00 L 354.00 686.00 L 354.00 682.00 L 355.00 681.00 L 362.00 680.00 L 363.00 679.00 L 369.00 678.00 L 370.00 677.00 L 373.00 677.00 Z M 826.00 649.00 L 825.00 655.00 L 824.00 656.00 L 824.00 658.00 L 823.00 659.00 L 819.00 673.00 L 815.00 680.00 L 815.00 682.00 L 811.00 690.00 L 809.00 692.00 L 807.00 697.00 L 805.00 699.00 L 804.00 702.00 L 802.00 704.00 L 798.00 711.00 L 790.00 720.00 L 784.00 714.00 L 784.00 713.00 L 771.00 699.00 L 771.00 698.00 L 759.00 685.00 L 759.00 684.00 L 754.00 679.00 L 754.00 678.00 L 741.00 664.00 L 741.00 663.00 L 743.00 661.00 L 748.00 661.00 L 749.00 660.00 L 754.00 660.00 L 755.00 659.00 L 761.00 659.00 L 762.00 658.00 L 767.00 658.00 L 768.00 657.00 L 773.00 657.00 L 774.00 656.00 L 779.00 656.00 L 780.00 655.00 L 786.00 655.00 L 787.00 654.00 L 792.00 654.00 L 793.00 653.00 L 798.00 653.00 L 799.00 652.00 L 804.00 652.00 L 805.00 651.00 L 811.00 651.00 L 812.00 650.00 L 817.00 650.00 L 818.00 649.00 L 823.00 649.00 L 824.00 648.00 Z M 462.00 648.00 L 464.00 647.00 L 465.00 648.00 L 470.00 648.00 L 471.00 649.00 L 475.00 649.00 L 476.00 650.00 L 481.00 650.00 L 482.00 651.00 L 487.00 651.00 L 488.00 652.00 L 493.00 652.00 L 494.00 653.00 L 499.00 653.00 L 500.00 654.00 L 505.00 654.00 L 506.00 655.00 L 511.00 655.00 L 512.00 656.00 L 517.00 656.00 L 518.00 657.00 L 523.00 657.00 L 524.00 658.00 L 529.00 658.00 L 530.00 659.00 L 535.00 659.00 L 536.00 660.00 L 542.00 660.00 L 543.00 661.00 L 546.00 661.00 L 547.00 662.00 L 535.00 675.00 L 535.00 676.00 L 529.00 682.00 L 529.00 683.00 L 523.00 689.00 L 523.00 690.00 L 516.00 697.00 L 516.00 698.00 L 510.00 704.00 L 510.00 705.00 L 503.00 712.00 L 503.00 713.00 L 497.00 719.00 L 487.00 706.00 L 486.00 703.00 L 482.00 698.00 L 480.00 693.00 L 478.00 691.00 L 473.00 681.00 L 473.00 679.00 L 469.00 672.00 L 469.00 670.00 L 468.00 669.00 L 468.00 667.00 L 467.00 666.00 L 467.00 664.00 L 464.00 657.00 L 464.00 654.00 L 463.00 653.00 L 463.00 650.00 Z M 849.00 644.00 L 850.00 645.00 L 850.00 647.00 L 849.00 648.00 L 849.00 652.00 L 848.00 653.00 L 847.00 660.00 L 845.00 664.00 L 845.00 667.00 L 844.00 668.00 L 842.00 676.00 L 838.00 684.00 L 838.00 686.00 L 828.00 706.00 L 826.00 708.00 L 822.00 716.00 L 812.00 729.00 L 812.00 730.00 L 805.00 738.00 L 796.00 728.00 L 796.00 726.00 L 799.00 723.00 L 799.00 722.00 L 802.00 719.00 L 802.00 718.00 L 805.00 715.00 L 805.00 714.00 L 811.00 706.00 L 812.00 703.00 L 814.00 701.00 L 816.00 696.00 L 818.00 694.00 L 821.00 688.00 L 821.00 686.00 L 825.00 679.00 L 825.00 677.00 L 827.00 674.00 L 827.00 672.00 L 828.00 671.00 L 828.00 669.00 L 829.00 668.00 L 829.00 666.00 L 830.00 665.00 L 830.00 663.00 L 833.00 656.00 L 834.00 648.00 L 836.00 646.00 L 848.00 645.00 Z M 440.00 644.00 L 452.00 645.00 L 454.00 647.00 L 454.00 650.00 L 455.00 651.00 L 455.00 654.00 L 456.00 655.00 L 456.00 657.00 L 459.00 664.00 L 459.00 667.00 L 462.00 673.00 L 462.00 675.00 L 464.00 678.00 L 464.00 680.00 L 467.00 685.00 L 467.00 687.00 L 470.00 693.00 L 472.00 695.00 L 475.00 702.00 L 477.00 704.00 L 487.00 720.00 L 492.00 725.00 L 492.00 726.00 L 483.00 736.00 L 482.00 736.00 L 476.00 729.00 L 476.00 728.00 L 472.00 724.00 L 472.00 723.00 L 466.00 715.00 L 464.00 710.00 L 460.00 705.00 L 452.00 689.00 L 452.00 687.00 L 448.00 679.00 L 448.00 677.00 L 447.00 676.00 L 447.00 674.00 L 446.00 673.00 L 446.00 671.00 L 445.00 670.00 L 445.00 668.00 L 442.00 661.00 L 442.00 658.00 L 441.00 657.00 L 441.00 654.00 L 440.00 653.00 L 440.00 650.00 L 439.00 649.00 L 439.00 645.00 Z M 910.00 635.00 L 911.00 636.00 L 911.00 640.00 L 910.00 641.00 L 910.00 646.00 L 909.00 647.00 L 908.00 658.00 L 907.00 659.00 L 907.00 662.00 L 906.00 663.00 L 906.00 666.00 L 905.00 667.00 L 903.00 678.00 L 902.00 679.00 L 902.00 681.00 L 901.00 682.00 L 897.00 696.00 L 895.00 699.00 L 895.00 701.00 L 891.00 709.00 L 891.00 711.00 L 879.00 735.00 L 877.00 737.00 L 873.00 745.00 L 869.00 750.00 L 868.00 753.00 L 865.00 756.00 L 863.00 760.00 L 853.00 772.00 L 853.00 773.00 L 843.00 784.00 L 807.00 741.00 L 822.00 722.00 L 822.00 721.00 L 826.00 716.00 L 827.00 713.00 L 829.00 711.00 L 832.00 704.00 L 834.00 702.00 L 837.00 696.00 L 837.00 694.00 L 841.00 687.00 L 841.00 685.00 L 843.00 682.00 L 843.00 680.00 L 845.00 677.00 L 845.00 675.00 L 848.00 668.00 L 848.00 665.00 L 849.00 664.00 L 850.00 658.00 L 852.00 654.00 L 853.00 645.00 L 855.00 643.00 L 867.00 642.00 L 868.00 641.00 L 873.00 641.00 L 874.00 640.00 L 879.00 640.00 L 880.00 639.00 L 885.00 639.00 L 886.00 638.00 L 891.00 638.00 L 892.00 637.00 L 897.00 637.00 L 898.00 636.00 L 903.00 636.00 L 904.00 635.00 Z M 379.00 634.00 L 382.00 634.00 L 383.00 635.00 L 389.00 635.00 L 390.00 636.00 L 395.00 636.00 L 396.00 637.00 L 401.00 637.00 L 402.00 638.00 L 407.00 638.00 L 408.00 639.00 L 413.00 639.00 L 414.00 640.00 L 420.00 640.00 L 421.00 641.00 L 426.00 641.00 L 427.00 642.00 L 432.00 642.00 L 435.00 644.00 L 436.00 650.00 L 437.00 651.00 L 437.00 654.00 L 438.00 655.00 L 438.00 658.00 L 439.00 659.00 L 439.00 662.00 L 442.00 669.00 L 442.00 672.00 L 444.00 675.00 L 444.00 677.00 L 445.00 678.00 L 446.00 683.00 L 449.00 688.00 L 449.00 690.00 L 464.00 718.00 L 480.00 739.00 L 480.00 740.00 L 476.00 744.00 L 476.00 745.00 L 459.00 764.00 L 459.00 765.00 L 450.00 775.00 L 450.00 776.00 L 445.00 782.00 L 444.00 782.00 L 435.00 772.00 L 435.00 771.00 L 431.00 767.00 L 431.00 766.00 L 428.00 763.00 L 426.00 759.00 L 423.00 756.00 L 423.00 755.00 L 417.00 747.00 L 416.00 744.00 L 411.00 737.00 L 408.00 730.00 L 406.00 728.00 L 402.00 720.00 L 402.00 718.00 L 397.00 709.00 L 397.00 707.00 L 393.00 699.00 L 393.00 697.00 L 392.00 696.00 L 392.00 694.00 L 391.00 693.00 L 391.00 691.00 L 390.00 690.00 L 390.00 688.00 L 389.00 687.00 L 389.00 685.00 L 386.00 678.00 L 386.00 675.00 L 384.00 671.00 L 384.00 668.00 L 383.00 667.00 L 383.00 663.00 L 382.00 662.00 L 382.00 658.00 L 381.00 657.00 L 381.00 653.00 L 380.00 652.00 L 380.00 648.00 L 379.00 647.00 L 379.00 642.00 L 378.00 641.00 L 378.00 635.00 Z M 944.00 630.00 L 945.00 631.00 L 945.00 634.00 L 944.00 635.00 L 943.00 650.00 L 942.00 651.00 L 942.00 656.00 L 941.00 657.00 L 941.00 661.00 L 940.00 662.00 L 940.00 667.00 L 939.00 668.00 L 939.00 671.00 L 938.00 672.00 L 938.00 675.00 L 936.00 678.00 L 933.00 678.00 L 932.00 677.00 L 929.00 677.00 L 928.00 676.00 L 925.00 676.00 L 924.00 675.00 L 921.00 675.00 L 920.00 674.00 L 917.00 674.00 L 916.00 673.00 L 910.00 672.00 L 908.00 670.00 L 909.00 669.00 L 909.00 665.00 L 910.00 664.00 L 910.00 661.00 L 911.00 660.00 L 911.00 656.00 L 912.00 655.00 L 912.00 650.00 L 913.00 649.00 L 913.00 645.00 L 914.00 644.00 L 914.00 638.00 L 915.00 637.00 L 915.00 635.00 L 918.00 633.00 L 930.00 632.00 L 931.00 631.00 L 936.00 631.00 L 937.00 630.00 Z M 345.00 629.00 L 357.00 630.00 L 358.00 631.00 L 363.00 631.00 L 364.00 632.00 L 370.00 632.00 L 374.00 634.00 L 374.00 637.00 L 375.00 638.00 L 375.00 643.00 L 376.00 644.00 L 376.00 650.00 L 377.00 651.00 L 377.00 655.00 L 378.00 656.00 L 379.00 665.00 L 380.00 666.00 L 380.00 669.00 L 381.00 670.00 L 380.00 672.00 L 373.00 673.00 L 369.00 675.00 L 366.00 675.00 L 365.00 676.00 L 362.00 676.00 L 361.00 677.00 L 358.00 677.00 L 357.00 678.00 L 353.00 678.00 L 351.00 675.00 L 350.00 667.00 L 349.00 666.00 L 348.00 657.00 L 347.00 656.00 L 347.00 651.00 L 346.00 650.00 L 346.00 643.00 L 345.00 642.00 L 345.00 636.00 L 344.00 635.00 L 344.00 630.00 Z M 964.00 626.00 L 966.00 628.00 L 965.00 629.00 L 965.00 637.00 L 964.00 638.00 L 964.00 645.00 L 963.00 646.00 L 963.00 651.00 L 962.00 652.00 L 962.00 658.00 L 961.00 659.00 L 961.00 663.00 L 960.00 664.00 L 960.00 669.00 L 959.00 670.00 L 959.00 673.00 L 958.00 674.00 L 957.00 682.00 L 956.00 683.00 L 952.00 683.00 L 951.00 682.00 L 945.00 681.00 L 943.00 679.00 L 944.00 677.00 L 944.00 673.00 L 945.00 672.00 L 945.00 668.00 L 946.00 667.00 L 946.00 664.00 L 947.00 663.00 L 948.00 652.00 L 949.00 651.00 L 949.00 645.00 L 950.00 644.00 L 950.00 638.00 L 951.00 637.00 L 951.00 629.00 L 952.00 628.00 L 955.00 628.00 L 956.00 627.00 L 962.00 627.00 Z M 324.00 625.00 L 326.00 626.00 L 336.00 627.00 L 338.00 629.00 L 338.00 636.00 L 339.00 637.00 L 340.00 651.00 L 341.00 652.00 L 341.00 657.00 L 342.00 658.00 L 343.00 667.00 L 344.00 668.00 L 345.00 676.00 L 346.00 677.00 L 346.00 680.00 L 345.00 681.00 L 342.00 681.00 L 341.00 682.00 L 338.00 682.00 L 337.00 683.00 L 333.00 683.00 L 332.00 682.00 L 331.00 674.00 L 330.00 673.00 L 329.00 665.00 L 328.00 664.00 L 327.00 654.00 L 326.00 653.00 L 325.00 641.00 L 324.00 640.00 L 324.00 631.00 L 323.00 630.00 L 323.00 626.00 Z M 645.00 605.00 L 657.00 617.00 L 657.00 618.00 L 703.00 663.00 L 703.00 666.00 L 702.00 667.00 L 702.00 672.00 L 701.00 673.00 L 701.00 678.00 L 700.00 679.00 L 699.00 691.00 L 698.00 692.00 L 698.00 697.00 L 697.00 698.00 L 697.00 704.00 L 696.00 705.00 L 696.00 710.00 L 695.00 711.00 L 695.00 717.00 L 694.00 718.00 L 694.00 723.00 L 693.00 724.00 L 693.00 729.00 L 692.00 730.00 L 692.00 735.00 L 691.00 736.00 L 691.00 741.00 L 690.00 742.00 L 690.00 748.00 L 689.00 749.00 L 689.00 754.00 L 688.00 755.00 L 688.00 761.00 L 687.00 762.00 L 687.00 767.00 L 686.00 768.00 L 686.00 773.00 L 685.00 774.00 L 685.00 780.00 L 684.00 781.00 L 684.00 786.00 L 683.00 787.00 L 683.00 793.00 L 682.00 794.00 L 682.00 799.00 L 681.00 800.00 L 681.00 805.00 L 680.00 806.00 L 680.00 811.00 L 679.00 812.00 L 679.00 818.00 L 678.00 819.00 L 678.00 825.00 L 677.00 826.00 L 677.00 831.00 L 676.00 832.00 L 676.00 837.00 L 675.00 838.00 L 675.00 844.00 L 674.00 845.00 L 674.00 851.00 L 673.00 852.00 L 673.00 857.00 L 672.00 858.00 L 671.00 871.00 L 670.00 872.00 L 670.00 877.00 L 669.00 878.00 L 669.00 884.00 L 668.00 885.00 L 668.00 891.00 L 667.00 892.00 L 666.00 905.00 L 665.00 906.00 L 665.00 911.00 L 664.00 912.00 L 664.00 918.00 L 663.00 919.00 L 663.00 925.00 L 662.00 926.00 L 661.00 939.00 L 660.00 940.00 L 660.00 945.00 L 659.00 946.00 L 658.00 959.00 L 657.00 960.00 L 657.00 965.00 L 656.00 966.00 L 656.00 971.00 L 655.00 972.00 L 655.00 978.00 L 654.00 979.00 L 654.00 984.00 L 653.00 985.00 L 653.00 991.00 L 652.00 992.00 L 652.00 997.00 L 651.00 998.00 L 651.00 1004.00 L 650.00 1005.00 L 650.00 1011.00 L 649.00 1012.00 L 649.00 1017.00 L 648.00 1018.00 L 648.00 1023.00 L 647.00 1024.00 L 647.00 1030.00 L 646.00 1031.00 L 645.00 1030.00 L 645.00 971.00 L 644.00 970.00 L 644.00 968.00 L 645.00 967.00 L 645.00 955.00 L 644.00 954.00 L 644.00 606.00 Z M 209.00 602.00 L 210.00 601.00 L 250.00 601.00 L 251.00 602.00 L 444.00 602.00 L 445.00 603.00 L 449.00 603.00 L 450.00 602.00 L 457.00 602.00 L 458.00 603.00 L 609.00 603.00 L 610.00 604.00 L 641.00 604.00 L 642.00 605.00 L 583.00 663.00 L 577.00 663.00 L 576.00 662.00 L 571.00 662.00 L 570.00 661.00 L 559.00 660.00 L 558.00 659.00 L 554.00 659.00 L 553.00 658.00 L 547.00 658.00 L 546.00 657.00 L 542.00 657.00 L 541.00 656.00 L 535.00 656.00 L 534.00 655.00 L 529.00 655.00 L 528.00 654.00 L 523.00 654.00 L 522.00 653.00 L 517.00 653.00 L 516.00 652.00 L 511.00 652.00 L 510.00 651.00 L 505.00 651.00 L 504.00 650.00 L 499.00 650.00 L 498.00 649.00 L 493.00 649.00 L 492.00 648.00 L 481.00 647.00 L 480.00 646.00 L 476.00 646.00 L 475.00 645.00 L 469.00 645.00 L 468.00 644.00 L 464.00 644.00 L 463.00 643.00 L 457.00 643.00 L 456.00 642.00 L 451.00 642.00 L 450.00 641.00 L 445.00 641.00 L 444.00 640.00 L 439.00 640.00 L 438.00 639.00 L 432.00 639.00 L 431.00 638.00 L 426.00 638.00 L 425.00 637.00 L 420.00 637.00 L 419.00 636.00 L 413.00 636.00 L 412.00 635.00 L 407.00 635.00 L 406.00 634.00 L 401.00 634.00 L 400.00 633.00 L 395.00 633.00 L 394.00 632.00 L 388.00 632.00 L 387.00 631.00 L 383.00 631.00 L 382.00 630.00 L 376.00 630.00 L 375.00 629.00 L 369.00 629.00 L 368.00 628.00 L 356.00 627.00 L 355.00 626.00 L 350.00 626.00 L 349.00 625.00 L 343.00 625.00 L 342.00 624.00 L 337.00 624.00 L 336.00 623.00 L 331.00 623.00 L 330.00 622.00 L 324.00 622.00 L 323.00 621.00 L 317.00 621.00 L 316.00 620.00 L 311.00 620.00 L 310.00 619.00 L 304.00 619.00 L 303.00 618.00 L 299.00 618.00 L 298.00 617.00 L 293.00 617.00 L 292.00 616.00 L 287.00 616.00 L 286.00 615.00 L 281.00 615.00 L 280.00 614.00 L 275.00 614.00 L 274.00 613.00 L 269.00 613.00 L 268.00 612.00 L 263.00 612.00 L 262.00 611.00 L 257.00 611.00 L 256.00 610.00 L 251.00 610.00 L 250.00 609.00 L 245.00 609.00 L 244.00 608.00 L 239.00 608.00 L 238.00 607.00 L 233.00 607.00 L 232.00 606.00 L 227.00 606.00 L 226.00 605.00 L 214.00 604.00 L 213.00 603.00 L 210.00 603.00 Z M 646.00 602.00 L 704.00 545.00 L 706.00 545.00 L 707.00 546.00 L 712.00 546.00 L 713.00 547.00 L 718.00 547.00 L 719.00 548.00 L 724.00 548.00 L 725.00 549.00 L 737.00 550.00 L 738.00 551.00 L 750.00 552.00 L 751.00 553.00 L 757.00 553.00 L 758.00 554.00 L 771.00 555.00 L 772.00 556.00 L 784.00 557.00 L 785.00 558.00 L 791.00 558.00 L 792.00 559.00 L 797.00 559.00 L 798.00 560.00 L 811.00 561.00 L 812.00 562.00 L 817.00 562.00 L 818.00 563.00 L 825.00 563.00 L 826.00 564.00 L 832.00 564.00 L 833.00 565.00 L 838.00 565.00 L 839.00 566.00 L 845.00 566.00 L 846.00 567.00 L 852.00 567.00 L 853.00 568.00 L 859.00 568.00 L 860.00 569.00 L 866.00 569.00 L 867.00 570.00 L 873.00 570.00 L 874.00 571.00 L 887.00 572.00 L 888.00 573.00 L 893.00 573.00 L 894.00 574.00 L 899.00 574.00 L 900.00 575.00 L 907.00 575.00 L 908.00 576.00 L 913.00 576.00 L 914.00 577.00 L 920.00 577.00 L 921.00 578.00 L 927.00 578.00 L 928.00 579.00 L 934.00 579.00 L 935.00 580.00 L 941.00 580.00 L 942.00 581.00 L 955.00 582.00 L 956.00 583.00 L 961.00 583.00 L 962.00 584.00 L 968.00 584.00 L 969.00 585.00 L 975.00 585.00 L 976.00 586.00 L 989.00 587.00 L 990.00 588.00 L 994.00 588.00 L 995.00 589.00 L 1001.00 589.00 L 1002.00 590.00 L 1014.00 591.00 L 1015.00 592.00 L 1020.00 592.00 L 1021.00 593.00 L 1026.00 593.00 L 1027.00 594.00 L 1033.00 594.00 L 1034.00 595.00 L 1038.00 595.00 L 1039.00 596.00 L 1045.00 596.00 L 1046.00 597.00 L 1051.00 597.00 L 1052.00 598.00 L 1058.00 598.00 L 1059.00 599.00 L 1070.00 600.00 L 1071.00 601.00 L 1075.00 601.00 L 1076.00 602.00 L 1075.00 603.00 L 647.00 603.00 Z M 911.00 534.00 L 914.00 534.00 L 915.00 533.00 L 918.00 533.00 L 922.00 531.00 L 929.00 530.00 L 933.00 528.00 L 936.00 528.00 L 937.00 529.00 L 938.00 535.00 L 939.00 536.00 L 939.00 540.00 L 940.00 541.00 L 940.00 545.00 L 941.00 546.00 L 941.00 550.00 L 942.00 551.00 L 942.00 556.00 L 943.00 557.00 L 944.00 572.00 L 945.00 573.00 L 945.00 576.00 L 944.00 577.00 L 933.00 576.00 L 932.00 575.00 L 926.00 575.00 L 925.00 574.00 L 919.00 574.00 L 918.00 573.00 L 916.00 573.00 L 914.00 571.00 L 914.00 565.00 L 913.00 564.00 L 912.00 553.00 L 911.00 552.00 L 910.00 543.00 L 909.00 542.00 L 909.00 539.00 L 908.00 538.00 L 908.00 536.00 Z M 380.00 535.00 L 381.00 536.00 L 381.00 538.00 L 380.00 539.00 L 379.00 547.00 L 378.00 548.00 L 378.00 552.00 L 377.00 553.00 L 377.00 557.00 L 376.00 558.00 L 375.00 570.00 L 373.00 572.00 L 369.00 572.00 L 368.00 573.00 L 363.00 573.00 L 362.00 574.00 L 356.00 574.00 L 355.00 575.00 L 349.00 575.00 L 348.00 576.00 L 346.00 576.00 L 345.00 575.00 L 346.00 561.00 L 347.00 560.00 L 347.00 555.00 L 348.00 554.00 L 348.00 549.00 L 349.00 548.00 L 350.00 539.00 L 351.00 538.00 L 351.00 535.00 L 352.00 534.00 L 352.00 531.00 L 353.00 529.00 L 355.00 528.00 L 356.00 529.00 L 359.00 529.00 L 360.00 530.00 L 363.00 530.00 L 364.00 531.00 L 367.00 531.00 L 368.00 532.00 L 371.00 532.00 L 372.00 533.00 L 375.00 533.00 L 376.00 534.00 Z M 945.00 525.00 L 948.00 525.00 L 952.00 523.00 L 955.00 523.00 L 957.00 526.00 L 958.00 534.00 L 959.00 535.00 L 960.00 543.00 L 961.00 544.00 L 961.00 548.00 L 962.00 549.00 L 962.00 554.00 L 963.00 555.00 L 963.00 561.00 L 964.00 562.00 L 964.00 568.00 L 965.00 569.00 L 965.00 578.00 L 966.00 579.00 L 965.00 580.00 L 953.00 579.00 L 951.00 577.00 L 951.00 569.00 L 950.00 568.00 L 950.00 562.00 L 949.00 561.00 L 949.00 556.00 L 948.00 555.00 L 947.00 544.00 L 946.00 543.00 L 945.00 535.00 L 944.00 534.00 L 944.00 531.00 L 943.00 530.00 L 943.00 527.00 Z M 345.00 525.00 L 347.00 527.00 L 347.00 529.00 L 346.00 530.00 L 345.00 538.00 L 344.00 539.00 L 343.00 547.00 L 342.00 548.00 L 342.00 553.00 L 341.00 554.00 L 341.00 559.00 L 340.00 560.00 L 340.00 566.00 L 339.00 567.00 L 339.00 575.00 L 337.00 577.00 L 335.00 577.00 L 334.00 578.00 L 328.00 578.00 L 327.00 579.00 L 325.00 579.00 L 324.00 578.00 L 324.00 575.00 L 325.00 574.00 L 326.00 559.00 L 327.00 558.00 L 328.00 547.00 L 329.00 546.00 L 329.00 542.00 L 330.00 541.00 L 330.00 538.00 L 331.00 537.00 L 331.00 533.00 L 332.00 532.00 L 333.00 525.00 L 335.00 523.00 L 337.00 524.00 L 340.00 524.00 L 341.00 525.00 Z M 742.00 546.00 L 743.00 544.00 L 749.00 538.00 L 749.00 537.00 L 757.00 529.00 L 757.00 528.00 L 763.00 522.00 L 763.00 521.00 L 784.00 498.00 L 784.00 497.00 L 792.00 489.00 L 795.00 492.00 L 795.00 493.00 L 798.00 496.00 L 798.00 497.00 L 804.00 505.00 L 805.00 508.00 L 810.00 515.00 L 815.00 525.00 L 815.00 527.00 L 819.00 534.00 L 819.00 536.00 L 820.00 537.00 L 820.00 539.00 L 821.00 540.00 L 821.00 542.00 L 822.00 543.00 L 822.00 545.00 L 825.00 552.00 L 826.00 558.00 L 825.00 559.00 L 819.00 559.00 L 818.00 558.00 L 812.00 558.00 L 811.00 557.00 L 805.00 557.00 L 804.00 556.00 L 798.00 556.00 L 797.00 555.00 L 791.00 555.00 L 790.00 554.00 L 785.00 554.00 L 784.00 553.00 L 778.00 553.00 L 777.00 552.00 L 771.00 552.00 L 770.00 551.00 L 765.00 551.00 L 764.00 550.00 L 758.00 550.00 L 757.00 549.00 L 745.00 548.00 Z M 546.00 544.00 L 545.00 546.00 L 539.00 546.00 L 538.00 547.00 L 533.00 547.00 L 532.00 548.00 L 525.00 548.00 L 524.00 549.00 L 512.00 550.00 L 511.00 551.00 L 499.00 552.00 L 498.00 553.00 L 486.00 554.00 L 485.00 555.00 L 473.00 556.00 L 472.00 557.00 L 466.00 557.00 L 465.00 558.00 L 463.00 557.00 L 464.00 551.00 L 466.00 547.00 L 466.00 544.00 L 469.00 538.00 L 470.00 533.00 L 474.00 526.00 L 474.00 524.00 L 476.00 522.00 L 484.00 506.00 L 486.00 504.00 L 490.00 497.00 L 493.00 494.00 L 493.00 493.00 L 497.00 489.00 L 498.00 489.00 L 504.00 495.00 L 504.00 496.00 L 510.00 502.00 L 510.00 503.00 L 517.00 510.00 L 517.00 511.00 Z M 806.00 472.00 L 807.00 472.00 L 811.00 476.00 L 811.00 477.00 L 821.00 490.00 L 822.00 493.00 L 824.00 495.00 L 828.00 503.00 L 830.00 505.00 L 837.00 519.00 L 837.00 521.00 L 839.00 524.00 L 839.00 526.00 L 843.00 534.00 L 844.00 540.00 L 847.00 547.00 L 847.00 550.00 L 848.00 551.00 L 848.00 554.00 L 849.00 555.00 L 849.00 558.00 L 850.00 559.00 L 850.00 562.00 L 849.00 563.00 L 846.00 563.00 L 845.00 562.00 L 839.00 562.00 L 838.00 561.00 L 836.00 561.00 L 834.00 559.00 L 833.00 551.00 L 832.00 550.00 L 828.00 536.00 L 824.00 528.00 L 824.00 526.00 L 812.00 503.00 L 797.00 482.00 Z M 484.00 471.00 L 490.00 478.00 L 492.00 482.00 L 485.00 490.00 L 485.00 491.00 L 477.00 502.00 L 465.00 525.00 L 465.00 527.00 L 462.00 532.00 L 462.00 534.00 L 461.00 535.00 L 461.00 537.00 L 460.00 538.00 L 460.00 540.00 L 457.00 547.00 L 457.00 550.00 L 455.00 554.00 L 455.00 558.00 L 453.00 560.00 L 448.00 560.00 L 447.00 561.00 L 442.00 561.00 L 440.00 562.00 L 439.00 561.00 L 439.00 559.00 L 440.00 558.00 L 440.00 554.00 L 441.00 553.00 L 442.00 546.00 L 443.00 545.00 L 447.00 531.00 L 449.00 528.00 L 450.00 523.00 L 455.00 514.00 L 455.00 512.00 L 458.00 506.00 L 460.00 504.00 L 462.00 499.00 L 464.00 497.00 L 465.00 494.00 L 467.00 492.00 L 471.00 485.00 L 474.00 482.00 L 477.00 477.00 L 483.00 471.00 Z M 905.00 456.00 L 907.00 456.00 L 910.00 460.00 L 918.00 476.00 L 918.00 478.00 L 923.00 487.00 L 923.00 489.00 L 927.00 497.00 L 927.00 499.00 L 928.00 500.00 L 928.00 502.00 L 929.00 503.00 L 929.00 505.00 L 930.00 506.00 L 930.00 508.00 L 931.00 509.00 L 931.00 511.00 L 934.00 518.00 L 934.00 521.00 L 935.00 522.00 L 935.00 524.00 L 934.00 525.00 L 932.00 525.00 L 928.00 527.00 L 925.00 527.00 L 924.00 528.00 L 921.00 528.00 L 917.00 530.00 L 910.00 531.00 L 909.00 532.00 L 908.00 532.00 L 906.00 530.00 L 905.00 524.00 L 904.00 523.00 L 901.00 512.00 L 899.00 509.00 L 898.00 504.00 L 896.00 501.00 L 896.00 499.00 L 892.00 492.00 L 892.00 490.00 L 885.00 476.00 L 882.00 472.00 L 882.00 471.00 L 885.00 468.00 L 893.00 464.00 L 895.00 462.00 L 898.00 461.00 Z M 384.00 456.00 L 388.00 459.00 L 391.00 460.00 L 393.00 462.00 L 396.00 463.00 L 398.00 465.00 L 407.00 470.00 L 407.00 472.00 L 405.00 474.00 L 398.00 488.00 L 398.00 490.00 L 394.00 497.00 L 394.00 499.00 L 392.00 502.00 L 392.00 504.00 L 388.00 512.00 L 383.00 530.00 L 381.00 532.00 L 380.00 532.00 L 379.00 531.00 L 376.00 531.00 L 372.00 529.00 L 369.00 529.00 L 368.00 528.00 L 365.00 528.00 L 361.00 526.00 L 355.00 525.00 L 354.00 523.00 L 355.00 522.00 L 355.00 520.00 L 358.00 513.00 L 358.00 510.00 L 359.00 509.00 L 360.00 504.00 L 362.00 501.00 L 363.00 496.00 L 366.00 491.00 L 368.00 484.00 L 381.00 458.00 L 383.00 456.00 Z M 924.00 446.00 L 926.00 448.00 L 929.00 455.00 L 931.00 457.00 L 935.00 465.00 L 935.00 467.00 L 940.00 476.00 L 940.00 478.00 L 943.00 483.00 L 944.00 488.00 L 946.00 491.00 L 947.00 496.00 L 949.00 499.00 L 950.00 505.00 L 951.00 506.00 L 951.00 508.00 L 952.00 509.00 L 952.00 511.00 L 955.00 518.00 L 954.00 520.00 L 948.00 521.00 L 947.00 522.00 L 944.00 522.00 L 943.00 523.00 L 940.00 519.00 L 939.00 513.00 L 938.00 512.00 L 936.00 504.00 L 934.00 501.00 L 933.00 496.00 L 931.00 493.00 L 930.00 488.00 L 923.00 474.00 L 923.00 472.00 L 917.00 460.00 L 915.00 458.00 L 913.00 454.00 L 913.00 452.00 L 914.00 451.00 L 917.00 450.00 L 919.00 448.00 Z M 367.00 446.00 L 369.00 448.00 L 375.00 451.00 L 377.00 453.00 L 377.00 454.00 L 375.00 456.00 L 361.00 485.00 L 361.00 487.00 L 357.00 495.00 L 354.00 506.00 L 352.00 509.00 L 352.00 512.00 L 351.00 513.00 L 349.00 521.00 L 347.00 523.00 L 342.00 521.00 L 336.00 520.00 L 335.00 519.00 L 336.00 517.00 L 336.00 514.00 L 337.00 513.00 L 337.00 511.00 L 338.00 510.00 L 342.00 496.00 L 344.00 493.00 L 344.00 491.00 L 348.00 483.00 L 348.00 481.00 L 364.00 448.00 L 366.00 446.00 Z M 845.00 426.00 L 855.00 437.00 L 855.00 438.00 L 864.00 449.00 L 864.00 450.00 L 874.00 464.00 L 876.00 469.00 L 881.00 476.00 L 891.00 496.00 L 891.00 498.00 L 895.00 506.00 L 896.00 511.00 L 898.00 514.00 L 898.00 516.00 L 899.00 517.00 L 899.00 519.00 L 902.00 526.00 L 903.00 533.00 L 905.00 537.00 L 906.00 545.00 L 907.00 546.00 L 907.00 549.00 L 908.00 550.00 L 909.00 560.00 L 910.00 561.00 L 910.00 567.00 L 911.00 568.00 L 911.00 571.00 L 910.00 572.00 L 899.00 571.00 L 898.00 570.00 L 892.00 570.00 L 891.00 569.00 L 886.00 569.00 L 885.00 568.00 L 879.00 568.00 L 878.00 567.00 L 873.00 567.00 L 872.00 566.00 L 866.00 566.00 L 865.00 565.00 L 859.00 565.00 L 858.00 564.00 L 855.00 564.00 L 853.00 562.00 L 853.00 558.00 L 852.00 557.00 L 850.00 546.00 L 848.00 542.00 L 848.00 539.00 L 846.00 536.00 L 846.00 533.00 L 844.00 530.00 L 843.00 525.00 L 841.00 522.00 L 841.00 520.00 L 831.00 500.00 L 824.00 490.00 L 823.00 487.00 L 816.00 478.00 L 816.00 477.00 L 809.00 469.00 L 811.00 465.00 L 828.00 446.00 L 828.00 445.00 L 833.00 440.00 L 833.00 439.00 L 838.00 434.00 L 838.00 433.00 Z M 445.00 425.00 L 456.00 437.00 L 456.00 438.00 L 460.00 442.00 L 460.00 443.00 L 464.00 447.00 L 464.00 448.00 L 470.00 454.00 L 470.00 455.00 L 475.00 460.00 L 475.00 461.00 L 481.00 468.00 L 472.00 478.00 L 472.00 479.00 L 460.00 496.00 L 458.00 501.00 L 456.00 503.00 L 451.00 513.00 L 451.00 515.00 L 445.00 527.00 L 445.00 529.00 L 444.00 530.00 L 444.00 532.00 L 443.00 533.00 L 443.00 535.00 L 442.00 536.00 L 442.00 538.00 L 439.00 545.00 L 439.00 548.00 L 438.00 549.00 L 438.00 552.00 L 437.00 553.00 L 437.00 556.00 L 436.00 557.00 L 436.00 561.00 L 434.00 563.00 L 422.00 564.00 L 421.00 565.00 L 416.00 565.00 L 415.00 566.00 L 409.00 566.00 L 408.00 567.00 L 402.00 567.00 L 401.00 568.00 L 396.00 568.00 L 395.00 569.00 L 389.00 569.00 L 388.00 570.00 L 382.00 570.00 L 381.00 571.00 L 379.00 571.00 L 378.00 570.00 L 378.00 568.00 L 379.00 567.00 L 379.00 561.00 L 380.00 560.00 L 380.00 555.00 L 381.00 554.00 L 381.00 551.00 L 382.00 550.00 L 382.00 546.00 L 383.00 545.00 L 384.00 537.00 L 386.00 533.00 L 386.00 530.00 L 387.00 529.00 L 387.00 526.00 L 388.00 525.00 L 390.00 517.00 L 392.00 514.00 L 394.00 506.00 L 397.00 501.00 L 397.00 499.00 L 400.00 494.00 L 400.00 492.00 L 408.00 476.00 L 410.00 474.00 L 412.00 469.00 L 414.00 467.00 L 415.00 464.00 L 419.00 459.00 L 422.00 453.00 L 425.00 450.00 L 427.00 446.00 L 437.00 434.00 L 437.00 433.00 Z M 688.00 424.00 L 694.00 425.00 L 695.00 426.00 L 697.00 426.00 L 698.00 427.00 L 712.00 431.00 L 722.00 436.00 L 724.00 436.00 L 748.00 449.00 L 751.00 452.00 L 752.00 452.00 L 763.00 460.00 L 763.00 461.00 L 759.00 465.00 L 758.00 465.00 L 744.00 478.00 L 743.00 478.00 L 738.00 483.00 L 737.00 483.00 L 730.00 490.00 L 729.00 490.00 L 722.00 497.00 L 721.00 497.00 L 714.00 504.00 L 713.00 504.00 L 703.00 513.00 L 701.00 512.00 L 701.00 508.00 L 700.00 507.00 L 699.00 495.00 L 698.00 494.00 L 698.00 489.00 L 697.00 488.00 L 697.00 483.00 L 696.00 482.00 L 696.00 477.00 L 695.00 476.00 L 695.00 471.00 L 694.00 470.00 L 694.00 465.00 L 693.00 464.00 L 693.00 459.00 L 692.00 458.00 L 692.00 453.00 L 691.00 452.00 L 691.00 446.00 L 690.00 445.00 L 690.00 440.00 L 689.00 439.00 L 689.00 433.00 L 688.00 432.00 L 688.00 427.00 L 687.00 426.00 Z M 599.00 424.00 L 600.00 426.00 L 599.00 427.00 L 599.00 433.00 L 598.00 434.00 L 598.00 439.00 L 597.00 440.00 L 597.00 445.00 L 596.00 446.00 L 596.00 452.00 L 595.00 453.00 L 595.00 458.00 L 594.00 459.00 L 594.00 465.00 L 593.00 466.00 L 593.00 471.00 L 592.00 472.00 L 592.00 477.00 L 591.00 478.00 L 591.00 484.00 L 590.00 485.00 L 590.00 490.00 L 589.00 491.00 L 589.00 497.00 L 588.00 498.00 L 587.00 509.00 L 585.00 512.00 L 575.00 503.00 L 574.00 503.00 L 558.00 488.00 L 557.00 488.00 L 550.00 481.00 L 549.00 481.00 L 542.00 474.00 L 541.00 474.00 L 534.00 467.00 L 533.00 467.00 L 528.00 462.00 L 527.00 462.00 L 526.00 460.00 L 539.00 450.00 L 542.00 449.00 L 549.00 444.00 L 567.00 435.00 L 569.00 435.00 L 577.00 431.00 L 585.00 429.00 L 588.00 427.00 L 591.00 427.00 L 592.00 426.00 L 598.00 425.00 Z M 603.00 402.00 L 602.00 414.00 L 600.00 416.00 L 598.00 417.00 L 595.00 417.00 L 594.00 418.00 L 592.00 418.00 L 591.00 419.00 L 589.00 419.00 L 588.00 420.00 L 586.00 420.00 L 585.00 421.00 L 583.00 421.00 L 576.00 424.00 L 574.00 424.00 L 571.00 426.00 L 564.00 428.00 L 557.00 432.00 L 555.00 432.00 L 551.00 434.00 L 549.00 436.00 L 537.00 442.00 L 519.00 455.00 L 509.00 446.00 L 509.00 445.00 L 511.00 443.00 L 512.00 443.00 L 526.00 432.00 L 529.00 431.00 L 539.00 424.00 L 555.00 416.00 L 557.00 416.00 L 564.00 412.00 L 566.00 412.00 L 569.00 410.00 L 571.00 410.00 L 572.00 409.00 L 574.00 409.00 L 575.00 408.00 L 577.00 408.00 L 578.00 407.00 L 580.00 407.00 L 587.00 404.00 L 590.00 404.00 L 591.00 403.00 L 594.00 403.00 L 595.00 402.00 L 598.00 402.00 L 599.00 401.00 L 602.00 401.00 Z M 866.00 400.00 L 885.00 422.00 L 885.00 423.00 L 891.00 430.00 L 895.00 437.00 L 898.00 440.00 L 899.00 443.00 L 901.00 445.00 L 905.00 452.00 L 902.00 455.00 L 899.00 456.00 L 897.00 458.00 L 894.00 459.00 L 892.00 461.00 L 887.00 463.00 L 885.00 465.00 L 880.00 467.00 L 878.00 465.00 L 877.00 462.00 L 875.00 460.00 L 865.00 444.00 L 848.00 423.00 L 849.00 420.00 Z M 684.00 401.00 L 685.00 400.00 L 686.00 401.00 L 689.00 401.00 L 690.00 402.00 L 698.00 403.00 L 705.00 406.00 L 708.00 406.00 L 711.00 408.00 L 722.00 411.00 L 736.00 418.00 L 738.00 418.00 L 746.00 422.00 L 748.00 424.00 L 753.00 426.00 L 755.00 428.00 L 758.00 429.00 L 760.00 431.00 L 767.00 435.00 L 778.00 444.00 L 779.00 444.00 L 780.00 446.00 L 773.00 453.00 L 769.00 455.00 L 753.00 443.00 L 727.00 429.00 L 725.00 429.00 L 720.00 426.00 L 715.00 425.00 L 712.00 423.00 L 710.00 423.00 L 709.00 422.00 L 707.00 422.00 L 706.00 421.00 L 704.00 421.00 L 697.00 418.00 L 694.00 418.00 L 693.00 417.00 L 687.00 416.00 L 685.00 414.00 Z M 425.00 399.00 L 429.00 404.00 L 429.00 405.00 L 437.00 414.00 L 437.00 415.00 L 442.00 420.00 L 442.00 422.00 L 427.00 440.00 L 425.00 444.00 L 422.00 447.00 L 422.00 448.00 L 412.00 462.00 L 411.00 465.00 L 409.00 467.00 L 408.00 467.00 L 404.00 464.00 L 401.00 463.00 L 399.00 461.00 L 394.00 459.00 L 392.00 457.00 L 385.00 453.00 L 385.00 451.00 L 400.00 428.00 L 406.00 421.00 L 406.00 420.00 L 415.00 410.00 L 415.00 409.00 Z M 878.00 385.00 L 894.00 402.00 L 894.00 403.00 L 902.00 412.00 L 902.00 413.00 L 908.00 420.00 L 912.00 427.00 L 915.00 430.00 L 915.00 431.00 L 919.00 436.00 L 920.00 439.00 L 922.00 441.00 L 922.00 442.00 L 919.00 445.00 L 911.00 449.00 L 903.00 438.00 L 900.00 432.00 L 897.00 429.00 L 897.00 428.00 L 894.00 425.00 L 894.00 424.00 L 891.00 421.00 L 888.00 416.00 L 879.00 406.00 L 879.00 405.00 L 870.00 396.00 L 870.00 394.00 Z M 413.00 384.00 L 417.00 389.00 L 417.00 390.00 L 421.00 394.00 L 413.00 402.00 L 413.00 403.00 L 403.00 414.00 L 403.00 415.00 L 394.00 426.00 L 394.00 427.00 L 384.00 441.00 L 381.00 447.00 L 379.00 449.00 L 378.00 449.00 L 370.00 445.00 L 368.00 443.00 L 368.00 442.00 L 384.00 417.00 L 387.00 414.00 L 390.00 409.00 L 395.00 404.00 L 395.00 403.00 L 400.00 398.00 L 400.00 397.00 L 409.00 388.00 L 409.00 387.00 L 412.00 384.00 Z M 506.00 371.00 L 484.00 385.00 L 481.00 388.00 L 480.00 388.00 L 477.00 391.00 L 472.00 394.00 L 468.00 398.00 L 467.00 398.00 L 461.00 404.00 L 459.00 404.00 L 438.00 386.00 L 445.00 379.00 L 446.00 379.00 L 456.00 370.00 L 457.00 370.00 L 468.00 361.00 L 490.00 347.00 L 492.00 347.00 L 493.00 348.00 L 494.00 351.00 L 496.00 353.00 L 498.00 358.00 L 500.00 360.00 L 502.00 365.00 L 504.00 367.00 Z M 782.00 370.00 L 785.00 366.00 L 787.00 361.00 L 789.00 359.00 L 791.00 354.00 L 793.00 352.00 L 795.00 347.00 L 797.00 346.00 L 801.00 349.00 L 804.00 350.00 L 806.00 352.00 L 809.00 353.00 L 811.00 355.00 L 818.00 359.00 L 821.00 362.00 L 825.00 364.00 L 843.00 379.00 L 844.00 379.00 L 852.00 387.00 L 839.00 398.00 L 838.00 398.00 L 833.00 403.00 L 829.00 405.00 L 823.00 399.00 L 822.00 399.00 L 818.00 395.00 L 817.00 395.00 L 806.00 386.00 L 805.00 386.00 L 799.00 381.00 L 793.00 378.00 Z M 674.00 340.00 L 675.00 339.00 L 678.00 339.00 L 679.00 340.00 L 686.00 340.00 L 687.00 341.00 L 696.00 342.00 L 697.00 343.00 L 700.00 343.00 L 701.00 344.00 L 705.00 344.00 L 706.00 345.00 L 709.00 345.00 L 710.00 346.00 L 721.00 348.00 L 722.00 349.00 L 724.00 349.00 L 725.00 350.00 L 727.00 350.00 L 728.00 351.00 L 742.00 355.00 L 747.00 358.00 L 749.00 358.00 L 754.00 361.00 L 756.00 361.00 L 774.00 370.00 L 776.00 372.00 L 781.00 374.00 L 783.00 376.00 L 786.00 377.00 L 788.00 379.00 L 791.00 380.00 L 793.00 382.00 L 797.00 384.00 L 800.00 387.00 L 801.00 387.00 L 814.00 397.00 L 815.00 397.00 L 820.00 402.00 L 821.00 402.00 L 826.00 407.00 L 826.00 408.00 L 805.00 426.00 L 804.00 426.00 L 799.00 431.00 L 798.00 431.00 L 793.00 436.00 L 792.00 436.00 L 786.00 442.00 L 782.00 443.00 L 774.00 436.00 L 773.00 436.00 L 764.00 429.00 L 761.00 428.00 L 751.00 421.00 L 733.00 412.00 L 731.00 412.00 L 721.00 407.00 L 719.00 407.00 L 718.00 406.00 L 716.00 406.00 L 715.00 405.00 L 713.00 405.00 L 706.00 402.00 L 703.00 402.00 L 699.00 400.00 L 696.00 400.00 L 695.00 399.00 L 684.00 397.00 L 682.00 395.00 L 681.00 382.00 L 680.00 381.00 L 680.00 376.00 L 679.00 375.00 L 679.00 370.00 L 678.00 369.00 L 678.00 363.00 L 677.00 362.00 L 677.00 357.00 L 676.00 356.00 L 676.00 350.00 L 675.00 349.00 L 675.00 344.00 L 674.00 343.00 Z M 613.00 340.00 L 613.00 343.00 L 612.00 344.00 L 612.00 349.00 L 611.00 350.00 L 611.00 356.00 L 610.00 357.00 L 610.00 363.00 L 609.00 364.00 L 609.00 369.00 L 608.00 370.00 L 608.00 376.00 L 607.00 377.00 L 607.00 382.00 L 606.00 383.00 L 605.00 395.00 L 602.00 398.00 L 598.00 398.00 L 597.00 399.00 L 590.00 400.00 L 586.00 402.00 L 583.00 402.00 L 582.00 403.00 L 568.00 407.00 L 560.00 411.00 L 558.00 411.00 L 534.00 423.00 L 529.00 427.00 L 526.00 428.00 L 524.00 430.00 L 520.00 432.00 L 506.00 443.00 L 505.00 443.00 L 500.00 438.00 L 499.00 438.00 L 493.00 432.00 L 492.00 432.00 L 463.00 407.00 L 469.00 401.00 L 470.00 401.00 L 479.00 393.00 L 483.00 391.00 L 486.00 388.00 L 487.00 388.00 L 501.00 378.00 L 504.00 377.00 L 511.00 372.00 L 533.00 361.00 L 535.00 361.00 L 547.00 355.00 L 549.00 355.00 L 550.00 354.00 L 552.00 354.00 L 553.00 353.00 L 555.00 353.00 L 556.00 352.00 L 558.00 352.00 L 559.00 351.00 L 561.00 351.00 L 562.00 350.00 L 564.00 350.00 L 571.00 347.00 L 574.00 347.00 L 575.00 346.00 L 578.00 346.00 L 579.00 345.00 L 582.00 345.00 L 583.00 344.00 L 587.00 344.00 L 588.00 343.00 L 591.00 343.00 L 592.00 342.00 L 602.00 341.00 L 603.00 340.00 L 609.00 340.00 L 610.00 339.00 L 612.00 339.00 Z M 484.00 332.00 L 486.00 337.00 L 488.00 339.00 L 488.00 341.00 L 486.00 343.00 L 483.00 344.00 L 478.00 348.00 L 475.00 349.00 L 473.00 351.00 L 463.00 357.00 L 446.00 371.00 L 445.00 371.00 L 433.00 382.00 L 428.00 378.00 L 427.00 378.00 L 423.00 374.00 L 423.00 373.00 L 434.00 363.00 L 435.00 363.00 L 440.00 358.00 L 441.00 358.00 L 445.00 354.00 L 446.00 354.00 L 453.00 348.00 L 457.00 346.00 L 460.00 343.00 L 481.00 330.00 L 482.00 330.00 Z M 805.00 330.00 L 807.00 329.00 L 811.00 331.00 L 813.00 333.00 L 819.00 336.00 L 828.00 343.00 L 835.00 347.00 L 852.00 361.00 L 853.00 361.00 L 860.00 368.00 L 861.00 368.00 L 867.00 374.00 L 867.00 375.00 L 863.00 379.00 L 862.00 379.00 L 857.00 383.00 L 850.00 376.00 L 849.00 376.00 L 839.00 367.00 L 838.00 367.00 L 827.00 358.00 L 823.00 356.00 L 820.00 353.00 L 819.00 353.00 L 814.00 349.00 L 811.00 348.00 L 806.00 344.00 L 803.00 343.00 L 800.00 340.00 Z M 565.00 319.00 L 565.00 322.00 L 566.00 323.00 L 566.00 326.00 L 567.00 327.00 L 567.00 330.00 L 569.00 334.00 L 570.00 341.00 L 571.00 342.00 L 570.00 344.00 L 563.00 346.00 L 562.00 347.00 L 559.00 347.00 L 556.00 349.00 L 554.00 349.00 L 553.00 350.00 L 548.00 351.00 L 545.00 353.00 L 543.00 353.00 L 540.00 355.00 L 538.00 355.00 L 513.00 367.00 L 511.00 369.00 L 509.00 369.00 L 507.00 367.00 L 502.00 357.00 L 500.00 355.00 L 498.00 350.00 L 495.00 346.00 L 495.00 345.00 L 497.00 343.00 L 521.00 331.00 L 528.00 329.00 L 538.00 324.00 L 540.00 324.00 L 541.00 323.00 L 543.00 323.00 L 544.00 322.00 L 546.00 322.00 L 547.00 321.00 L 549.00 321.00 L 550.00 320.00 L 552.00 320.00 L 559.00 317.00 L 562.00 317.00 L 563.00 316.00 Z M 723.00 316.00 L 724.00 315.00 L 725.00 316.00 L 728.00 316.00 L 729.00 317.00 L 731.00 317.00 L 732.00 318.00 L 734.00 318.00 L 735.00 319.00 L 749.00 323.00 L 752.00 325.00 L 759.00 327.00 L 764.00 330.00 L 766.00 330.00 L 773.00 334.00 L 775.00 334.00 L 777.00 336.00 L 779.00 336.00 L 781.00 338.00 L 792.00 343.00 L 793.00 345.00 L 790.00 351.00 L 788.00 353.00 L 787.00 356.00 L 785.00 358.00 L 783.00 363.00 L 781.00 365.00 L 780.00 368.00 L 778.00 369.00 L 776.00 367.00 L 762.00 360.00 L 760.00 360.00 L 751.00 355.00 L 749.00 355.00 L 743.00 352.00 L 741.00 352.00 L 738.00 350.00 L 736.00 350.00 L 735.00 349.00 L 733.00 349.00 L 732.00 348.00 L 718.00 344.00 L 716.00 342.00 L 717.00 341.00 L 717.00 338.00 L 718.00 337.00 L 718.00 334.00 L 719.00 333.00 L 719.00 330.00 L 720.00 329.00 L 720.00 326.00 L 721.00 325.00 L 721.00 322.00 L 722.00 321.00 Z M 669.00 307.00 L 670.00 306.00 L 675.00 306.00 L 676.00 307.00 L 691.00 308.00 L 692.00 309.00 L 697.00 309.00 L 698.00 310.00 L 702.00 310.00 L 703.00 311.00 L 707.00 311.00 L 708.00 312.00 L 712.00 312.00 L 713.00 313.00 L 719.00 314.00 L 720.00 315.00 L 720.00 317.00 L 719.00 318.00 L 718.00 325.00 L 716.00 329.00 L 716.00 333.00 L 715.00 334.00 L 714.00 341.00 L 713.00 342.00 L 709.00 342.00 L 708.00 341.00 L 700.00 340.00 L 699.00 339.00 L 695.00 339.00 L 694.00 338.00 L 689.00 338.00 L 688.00 337.00 L 683.00 337.00 L 682.00 336.00 L 675.00 336.00 L 673.00 334.00 L 673.00 331.00 L 672.00 330.00 L 672.00 324.00 L 671.00 323.00 L 671.00 317.00 L 670.00 316.00 L 670.00 311.00 L 669.00 310.00 Z M 618.00 307.00 L 618.00 310.00 L 617.00 311.00 L 617.00 317.00 L 616.00 318.00 L 616.00 324.00 L 615.00 325.00 L 615.00 330.00 L 614.00 331.00 L 614.00 335.00 L 613.00 336.00 L 607.00 336.00 L 606.00 337.00 L 595.00 338.00 L 594.00 339.00 L 585.00 340.00 L 584.00 341.00 L 581.00 341.00 L 580.00 342.00 L 577.00 342.00 L 576.00 343.00 L 574.00 342.00 L 573.00 340.00 L 573.00 337.00 L 572.00 336.00 L 572.00 333.00 L 570.00 329.00 L 568.00 318.00 L 567.00 317.00 L 568.00 315.00 L 570.00 314.00 L 573.00 314.00 L 574.00 313.00 L 577.00 313.00 L 578.00 312.00 L 582.00 312.00 L 583.00 311.00 L 587.00 311.00 L 588.00 310.00 L 593.00 310.00 L 594.00 309.00 L 599.00 309.00 L 600.00 308.00 L 605.00 308.00 L 606.00 307.00 L 614.00 307.00 L 615.00 306.00 L 617.00 306.00 Z M 560.00 299.00 L 560.00 302.00 L 561.00 303.00 L 561.00 306.00 L 562.00 307.00 L 562.00 310.00 L 561.00 311.00 L 555.00 312.00 L 554.00 313.00 L 540.00 317.00 L 537.00 319.00 L 532.00 320.00 L 529.00 322.00 L 527.00 322.00 L 513.00 329.00 L 511.00 329.00 L 499.00 335.00 L 497.00 337.00 L 492.00 339.00 L 490.00 337.00 L 486.00 329.00 L 486.00 328.00 L 488.00 326.00 L 491.00 325.00 L 493.00 323.00 L 507.00 316.00 L 509.00 316.00 L 514.00 313.00 L 516.00 313.00 L 521.00 310.00 L 523.00 310.00 L 528.00 307.00 L 530.00 307.00 L 531.00 306.00 L 539.00 304.00 L 542.00 302.00 L 544.00 302.00 L 551.00 299.00 L 554.00 299.00 L 558.00 297.00 Z M 727.00 299.00 L 729.00 296.00 L 730.00 297.00 L 736.00 298.00 L 737.00 299.00 L 751.00 303.00 L 754.00 305.00 L 762.00 307.00 L 767.00 310.00 L 774.00 312.00 L 787.00 319.00 L 789.00 319.00 L 791.00 321.00 L 793.00 321.00 L 797.00 323.00 L 799.00 325.00 L 802.00 326.00 L 803.00 328.00 L 801.00 330.00 L 799.00 335.00 L 796.00 338.00 L 794.00 338.00 L 792.00 336.00 L 770.00 325.00 L 768.00 325.00 L 765.00 323.00 L 763.00 323.00 L 760.00 321.00 L 758.00 321.00 L 750.00 317.00 L 748.00 317.00 L 747.00 316.00 L 745.00 316.00 L 744.00 315.00 L 742.00 315.00 L 735.00 312.00 L 732.00 312.00 L 731.00 311.00 L 726.00 310.00 L 725.00 309.00 L 725.00 306.00 L 726.00 305.00 Z M 666.00 287.00 L 667.00 286.00 L 671.00 286.00 L 672.00 287.00 L 681.00 287.00 L 682.00 288.00 L 688.00 288.00 L 689.00 289.00 L 695.00 289.00 L 696.00 290.00 L 707.00 291.00 L 708.00 292.00 L 712.00 292.00 L 713.00 293.00 L 721.00 294.00 L 722.00 295.00 L 724.00 295.00 L 725.00 297.00 L 724.00 298.00 L 723.00 305.00 L 721.00 308.00 L 713.00 307.00 L 712.00 306.00 L 704.00 305.00 L 703.00 304.00 L 698.00 304.00 L 697.00 303.00 L 691.00 303.00 L 690.00 302.00 L 685.00 302.00 L 684.00 301.00 L 669.00 300.00 L 667.00 298.00 L 667.00 291.00 L 666.00 290.00 Z M 621.00 287.00 L 620.00 298.00 L 618.00 300.00 L 615.00 300.00 L 614.00 301.00 L 600.00 302.00 L 599.00 303.00 L 588.00 304.00 L 587.00 305.00 L 583.00 305.00 L 582.00 306.00 L 579.00 306.00 L 578.00 307.00 L 574.00 307.00 L 573.00 308.00 L 566.00 309.00 L 565.00 308.00 L 565.00 306.00 L 563.00 302.00 L 563.00 299.00 L 562.00 298.00 L 563.00 296.00 L 565.00 296.00 L 566.00 295.00 L 574.00 294.00 L 575.00 293.00 L 583.00 292.00 L 584.00 291.00 L 588.00 291.00 L 589.00 290.00 L 595.00 290.00 L 596.00 289.00 L 602.00 289.00 L 603.00 288.00 L 609.00 288.00 L 610.00 287.00 L 618.00 287.00 L 619.00 286.00 Z M 642.00 178.00 L 643.00 179.00 L 643.00 266.00 L 644.00 267.00 L 644.00 601.00 L 643.00 602.00 L 596.00 555.00 L 596.00 554.00 L 585.00 543.00 L 586.00 535.00 L 587.00 534.00 L 587.00 528.00 L 588.00 527.00 L 588.00 523.00 L 589.00 522.00 L 589.00 516.00 L 590.00 515.00 L 591.00 504.00 L 592.00 503.00 L 592.00 497.00 L 593.00 496.00 L 594.00 485.00 L 595.00 484.00 L 595.00 478.00 L 596.00 477.00 L 596.00 472.00 L 597.00 471.00 L 597.00 465.00 L 598.00 464.00 L 598.00 459.00 L 599.00 458.00 L 599.00 453.00 L 600.00 452.00 L 600.00 447.00 L 601.00 446.00 L 601.00 440.00 L 602.00 439.00 L 602.00 434.00 L 603.00 433.00 L 603.00 428.00 L 604.00 427.00 L 604.00 421.00 L 605.00 420.00 L 605.00 415.00 L 606.00 414.00 L 606.00 409.00 L 607.00 408.00 L 607.00 403.00 L 608.00 402.00 L 608.00 396.00 L 609.00 395.00 L 609.00 390.00 L 610.00 389.00 L 610.00 383.00 L 611.00 382.00 L 612.00 369.00 L 613.00 368.00 L 614.00 356.00 L 615.00 355.00 L 615.00 350.00 L 616.00 349.00 L 617.00 336.00 L 618.00 335.00 L 618.00 330.00 L 619.00 329.00 L 619.00 324.00 L 620.00 323.00 L 620.00 317.00 L 621.00 316.00 L 622.00 304.00 L 623.00 303.00 L 623.00 298.00 L 624.00 297.00 L 625.00 284.00 L 626.00 283.00 L 626.00 279.00 L 627.00 278.00 L 627.00 271.00 L 628.00 270.00 L 628.00 265.00 L 629.00 264.00 L 629.00 258.00 L 630.00 257.00 L 630.00 252.00 L 631.00 251.00 L 632.00 238.00 L 633.00 237.00 L 633.00 232.00 L 634.00 231.00 L 634.00 226.00 L 635.00 225.00 L 635.00 219.00 L 636.00 218.00 L 636.00 212.00 L 637.00 211.00 L 638.00 199.00 L 639.00 198.00 L 640.00 186.00 L 641.00 185.00 L 641.00 179.00 Z M 592.00 45.00 L 592.00 48.00 L 599.00 50.00 L 604.00 56.00 L 604.00 125.00 L 603.00 126.00 L 603.00 128.00 L 599.00 132.00 L 593.00 133.00 L 592.00 134.00 L 592.00 137.00 L 602.00 137.00 L 603.00 136.00 L 605.00 136.00 L 606.00 137.00 L 608.00 137.00 L 609.00 136.00 L 623.00 137.00 L 623.00 133.00 L 619.00 133.00 L 618.00 132.00 L 614.00 131.00 L 611.00 128.00 L 611.00 125.00 L 610.00 124.00 L 610.00 66.00 L 611.00 65.00 L 617.00 72.00 L 617.00 73.00 L 622.00 78.00 L 622.00 79.00 L 628.00 85.00 L 628.00 86.00 L 633.00 91.00 L 633.00 92.00 L 649.00 110.00 L 649.00 111.00 L 655.00 117.00 L 655.00 118.00 L 659.00 122.00 L 659.00 123.00 L 672.00 137.00 L 672.00 138.00 L 677.00 138.00 L 677.00 55.00 L 682.00 49.00 L 688.00 48.00 L 688.00 45.00 L 659.00 45.00 L 659.00 48.00 L 666.00 49.00 L 671.00 55.00 L 671.00 107.00 L 670.00 108.00 L 660.00 97.00 L 660.00 96.00 L 655.00 91.00 L 655.00 90.00 L 648.00 83.00 L 648.00 82.00 L 643.00 77.00 L 643.00 76.00 L 637.00 70.00 L 637.00 69.00 L 632.00 64.00 L 632.00 63.00 L 627.00 58.00 L 627.00 57.00 L 617.00 45.00 Z"
        fill="black"
        fill-rule="evenodd"
        stroke="none"/>
</svg>
